<?xml version="1.0" standalone="no"?>
<!DOCTYPE svg PUBLIC "-//W3C//DTD SVG 20010904//EN"
 "http://www.w3.org/TR/2001/REC-SVG-20010904/DTD/svg10.dtd">
<svg version="1.0" xmlns="http://www.w3.org/2000/svg"
 width="500.000000pt" height="500.000000pt" viewBox="0 0 500.000000 500.000000"
 preserveAspectRatio="xMidYMid meet">
<metadata>
Created by potrace 1.14, written by Peter Selinger 2001-2017
</metadata>
<g transform="translate(0.000000,500.000000) scale(0.100000,-0.100000)"
fill="#000000" stroke="none">
<path d="M0 2500 l0 -2500 320 0 c176 0 320 1 320 3 0 2 -9 43 -20 92 -67 312
-68 707 0 1017 65 298 219 587 423 796 264 271 617 437 1077 509 166 25 606
25 775 -1 876 -134 1411 -652 1531 -1483 21 -145 24 -484 5 -623 -12 -87 -43
-250 -57 -292 -5 -17 13 -18 310 -18 l316 0 0 2500 0 2500 -2500 0 -2500 0 0
-2500z"/>
<path d="M2310 2030 c-563 -59 -962 -362 -1125 -853 -110 -333 -116 -760 -14
-1104 l22 -73 1313 0 1312 0 21 63 c58 174 88 459 71 680 -28 366 -131 645
-317 858 -194 222 -458 361 -783 414 -116 19 -385 27 -500 15z"/>
</g>
</svg>
