<?xml version="1.0" standalone="no"?>
<!DOCTYPE svg PUBLIC "-//W3C//DTD SVG 20010904//EN"
 "http://www.w3.org/TR/2001/REC-SVG-20010904/DTD/svg10.dtd">
<svg version="1.0" xmlns="http://www.w3.org/2000/svg"
 width="240.000000pt" height="240.000000pt" viewBox="0 0 240.000000 240.000000"
 preserveAspectRatio="xMidYMid meet">
<metadata>
Created by potrace 1.14, written by Peter Selinger 2001-2017
</metadata>
<g transform="translate(0.000000,240.000000) scale(0.100000,-0.100000)"
fill="#000000" stroke="none">
<path d="M1040 2393 c-537 -87 -935 -476 -1026 -1003 -13 -75 -13 -335 0 -395
47 -217 129 -398 246 -543 182 -225 435 -378 715 -433 74 -14 341 -19 410 -7
398 68 729 316 899 671 84 176 115 325 111 537 -1 85 -5 166 -9 180 -3 14 -8
39 -12 55 -25 128 -94 288 -179 415 -175 261 -436 437 -749 507 -67 15 -345
26 -406 16z"/>
</g>
</svg>
