<svg width="220" height="242" viewBox="0 0 220 242" fill="none" xmlns="http://www.w3.org/2000/svg">
<path d="M201.74 70.2369L202.268 70.7664C203.587 68.9134 204.378 67.5898 206.489 66.7956C207.925 66.1779 209.595 65.5602 211.207 65.0602C212.966 65.9132 215.018 66.2662 217.333 66.0014C218.652 65.7367 220.235 65.2073 219.971 64.1484C219.971 62.8248 219.443 62.2954 218.124 62.5601C216.102 62.9425 214.754 63.266 213.464 63.619C212.761 63.1189 212.057 62.5013 211.383 61.7953C213.112 61.2365 214.666 60.4423 216.014 59.354L217.597 58.2952C215.75 58.0304 214.695 57.501 214.168 56.7068C213.112 55.3833 212.849 53.7949 213.376 51.9125C211.53 53.2361 210.475 54.295 208.335 55.0891C206.489 55.3538 204.114 55.6186 201.975 55.3538L203.03 55.8833C205.14 56.9422 205.14 58.001 206.195 59.8541C206.459 60.3541 206.752 60.8541 207.045 61.2953C206.635 61.2953 206.225 61.2953 205.785 61.2953C205.58 61.0012 205.375 60.6776 205.14 60.3835C196.435 52.942 188.082 51.7948 178.996 51.6478C176.886 50.03 174.746 48.2947 172.519 46.471C173.222 46.2651 173.926 46.0004 174.717 45.7357C174.893 45.824 175.069 45.9416 175.244 46.0298C182.66 50.2654 190.603 54.5303 200.92 52.1478L203.558 51.6184H200.392C191.13 51.3536 185.825 49.5006 178.175 44.4415C176.27 43.3532 174.6 42.2944 173.076 41.2649C173.545 41.1767 173.984 41.0884 174.453 41.0002L175.684 40.7355C179.025 42.8532 183.041 43.6768 187.936 43.1473C203.558 42.3532 207.778 18.1755 190.837 17.3813C177.062 17.3813 173.896 34.6469 185.796 35.9705C190.017 36.2352 193.475 33.3233 193.475 30.1173C193.475 27.2054 192.42 25.8818 190.046 25.8818C187.672 25.8818 186.617 26.6759 186.617 27.9995C186.617 29.3231 185.825 28.529 185.034 28.7937C185.298 30.1173 186.089 30.6467 187.408 30.382C189.518 30.382 189.254 29.3231 189.518 27.9995C189.782 26.1465 192.684 27.2054 192.42 29.5878C191.892 33.0292 190.046 34.6469 186.851 34.6469C176.27 34.6469 176.007 18.1755 190.808 18.1755C205.639 18.9697 202.18 41.8237 187.642 41.8237C182.601 42.0885 178.117 39.9707 174.688 35.1764L173.896 33.8528L175.743 32.7939L174.951 31.9997C171.991 33.5292 168.884 34.5587 165.631 35.1469C164.341 33.8528 163.11 32.4998 161.791 30.9703C163.433 30.882 165.221 30.7055 167.272 30.4114C170.174 29.6173 171.757 29.6173 174.951 28.5584V28.0289C171.083 29.8526 168.445 27.8525 165.367 26.0288C165.543 25.9994 165.748 25.9406 165.953 25.9112C175.743 24.5876 173.369 12.6458 166.217 12.6458C159.916 12.6458 157.454 18.7932 159.183 23.7052C154.904 22.5875 151.504 21.1757 147.166 18.499L145.847 17.4402L147.166 18.7638C148.016 19.705 148.837 20.6168 149.628 21.4992L148.749 23.264C147.723 25.1759 146.287 26.0288 144.616 26.4112C143.913 25.9112 143.18 25.4112 142.388 24.8523L140.278 22.4698L139.487 22.9993L141.861 25.3817C142.447 25.8229 142.975 26.2053 143.502 26.5877C142.476 26.7053 141.392 26.7053 140.278 26.7053C132.599 26.7053 125.975 22.2051 117.241 22.4698C116.508 22.4698 115.775 22.4698 115.043 22.5287C113.02 10.8222 104.345 0.96875 90.7743 0.96875C78.4056 0.96875 69.3489 8.38089 63.7508 18.9108C53.4045 5.38074 26.5276 11.2928 25.6777 31.235C25.5018 35.6176 26.5569 39.0883 28.2862 41.6767C20.4019 49.53 20.8123 64.9131 31.4516 68.2957C30.8654 69.2075 30.4258 70.2369 30.1034 71.3252C28.1983 71.7076 26.2638 72.5606 24.3587 74.0018C19.4054 77.3255 16.8555 85.1495 18.0572 91.4439C8.35569 93.4146 9.93841 109.062 19.3468 109.062C22.5122 109.062 25.4432 107.209 25.4432 103.739C25.4432 98.6796 19.6106 102.15 19.6106 99.2384C19.3468 98.4443 19.6106 98.1795 19.6106 97.1207C18.8192 97.9148 18.0279 98.9737 17.7641 100.297C17.7641 102.68 20.1381 104.533 23.0691 103.739C25.1794 102.944 24.388 109.062 19.3761 108.239C14.8917 107.445 12.7521 105.062 12.7521 100.797C12.5176 96.8853 14.7452 93.8558 18.4382 92.7969C19.6692 96.9736 22.7174 100.209 28.1103 100.533C29.5172 100.533 30.8654 100.297 32.0671 99.8267C33.1516 102.386 33.6499 105.209 33.6499 107.709C33.6499 112.033 31.2758 116.563 28.169 120.21C26.8793 114.651 22.8932 110.151 17.5003 110.357C7.44709 111.151 5.3368 130.269 15.1262 131.064C17.383 131.064 21.3105 128.799 25.0622 125.328C25.1208 126.093 25.1794 126.857 25.1794 127.622V129.475C23.8605 131.328 22.8053 132.387 21.7502 134.27L16.9727 138.77L17.7641 139.564C23.3329 133.975 27.5535 129.652 31.6861 124.651C31.9206 126.357 32.1258 127.946 32.2723 129.505C29.3414 132.799 26.4397 136.123 22.776 140.623L23.3036 141.152L25.6777 139.035L25.9414 141.682C27.2604 152.3 25.9414 162.653 16.4158 167.183C6.36264 170.624 -2.10784 159.741 2.11275 152.035C5.01439 145.388 15.3314 143.799 19.0537 148.859C22.4829 154.447 17.7348 160.8 12.4297 160.8C9.52807 161.065 6.33333 159.741 7.12469 157.359C7.65226 155.771 8.97119 154.712 10.8177 154.447C12.6642 154.447 11.8728 156.3 15.8589 156.3C19.0244 156.3 19.8157 151.241 17.9692 150.447L16.9141 149.917L17.7054 151.241C18.4968 152.035 17.4417 153.359 16.3865 153.359C14.0124 154.153 14.0124 152.035 11.0815 152.035C8.15052 152.035 6.59711 153.623 6.30402 157.094C6.30402 160.006 8.41431 162.153 12.4004 161.889C18.7606 161.889 23.5087 154.182 20.0795 148.064C15.8589 142.476 4.19373 144.358 1.29208 151.506C-3.48539 161.065 5.77644 171.419 16.1227 167.977C24.5639 164.389 28.6086 157.359 29.5758 149.123C30.4844 147.564 31.3344 146.094 32.1844 144.711C31.9792 153.976 31.5689 160.947 26.7035 169.565L23.5381 174.625L27.2311 169.83C31.774 164.124 33.5326 159.212 34.4705 153.359C36.1119 150.682 37.6067 148.241 39.0721 145.888C39.0428 147.506 38.9842 149.182 38.8963 150.976C38.1049 160.8 37.5773 167.183 32.2723 175.419L28.5793 181.007L33.0637 176.213C37.4015 171.389 40.098 163.948 41.329 155.418C42.6479 153.123 43.8789 151.035 45.0806 149.006C45.403 152.565 45.7547 155.918 46.0185 159.183C40.5962 168.565 36.7274 177.684 36.2291 188.419C36.2291 189.39 36.317 190.361 36.4343 191.331C33.9723 192.831 31.8913 194.831 30.3379 197.332C29.0189 196.685 27.4948 196.096 25.619 195.596C19.2589 193.214 11.5797 197.185 11.316 203.567C11.0522 210.215 15.8003 212.068 21.1054 212.862C23.3622 213.009 25.4432 212.803 27.3776 212.332C28.8431 225.304 38.6618 233.863 52.3201 233.863C56.1596 233.863 63.0474 230.951 66.1249 227.539C67.7369 228.157 69.6713 228.539 71.6644 228.539C72.0747 228.539 72.4851 228.539 72.8954 228.48C72.7782 229.068 72.7195 229.716 72.7195 230.392C72.7195 243.922 94.9362 246.334 95.7569 232.245C95.7569 228.274 92.5914 225.333 88.3416 225.333C85.1761 225.333 81.4538 226.127 82.2452 229.304C82.5089 230.098 83.8279 230.363 83.8279 231.686C83.8279 232.745 82.5089 233.01 82.5089 234.069C82.7727 234.863 83.0365 235.128 83.8279 235.128C84.6192 235.128 84.883 235.657 84.883 236.451V236.981L86.4657 236.451C87.2571 235.922 87.7847 235.128 88.0485 234.069C88.0485 232.745 84.883 233.539 84.883 232.216C84.883 231.422 85.4106 230.892 86.202 230.892C86.9933 230.892 87.5209 230.627 87.5209 229.833C87.5209 229.039 85.4106 229.039 85.1468 227.715C85.1468 225.862 87.5209 225.598 89.3674 225.598C92.5328 225.598 94.6724 228.774 94.6724 231.98C95.4638 244.452 72.7195 243.393 73.5109 230.127C73.5695 229.51 73.6574 228.951 73.7747 228.392C77.9953 227.892 81.7469 225.833 81.9814 222.421C81.9814 222.156 81.9814 221.921 81.9814 221.656C87.3743 220.627 94.4086 221.656 100.505 223.215C104.462 224.009 106.338 224.539 106.601 224.539C108.712 224.539 110.558 224.274 113.489 224.009L115.453 223.774L115.072 224.009C111.906 224.804 110.294 225.333 110.031 225.333H97.8672C100.241 225.333 102.352 226.921 105.282 226.657C109.767 225.862 112.434 225.598 115.863 224.539L116.801 223.598L119.82 223.215V223.127L120.611 223.215L119.029 224.539C115.863 225.598 113.724 225.598 113.724 229.598C112.932 238.893 126.942 235.981 126.151 228.539C125.887 225.627 122.194 225.098 120.318 225.892L118.472 227.215L118.999 228.274L120.846 226.421C122.165 225.362 125.066 226.421 125.066 228.539C125.066 235.451 114.486 236.775 115.277 229.863C116.068 223.745 122.956 223.215 129.58 223.215C140.952 223.48 151.269 220.303 163.198 210.479C169.089 205.656 172.314 199.949 178.908 198.096C180.725 199.508 183.305 200.244 185.972 200.391C187.086 200.42 188.17 200.273 189.196 199.979C190.661 201.449 191.658 203.45 192.068 205.714C193.123 212.097 186.763 216.862 180.432 217.921C176.475 218.715 171.434 214.744 172.489 210.479C173.017 208.097 174.336 206.509 176.71 205.685C179.612 204.891 180.403 209.391 183.598 208.597C185.708 207.538 188.082 207.273 188.082 205.156C188.082 203.567 187.818 202.773 187.027 202.508H186.236L185.972 203.038L187.027 203.302C187.818 203.302 187.291 205.42 185.444 205.685C183.334 205.95 182.543 203.567 180.403 203.567C175.919 203.302 171.405 206.214 171.141 210.744C170.877 215.803 176.182 219.509 180.403 218.715C187.555 217.656 194.442 213.391 193.358 206.244C192.947 203.42 191.951 201.214 190.31 199.567C195.322 197.42 198.604 191.39 198.399 185.537C198.399 179.419 194.442 176.507 188.873 176.507C186.939 176.507 184.917 176.919 182.953 177.684C183.539 176.242 184.33 174.772 185.679 173.066C188.053 169.889 189.899 169.36 193.094 167.477V166.683H192.303L192.449 160.418C193.035 159.977 193.68 159.506 194.413 158.977L194.677 168.801C192.83 169.86 192.566 173.301 191.511 175.448H192.303C193.622 170.948 195.204 169.065 198.399 166.154C200.509 164.301 201.828 162.977 204.232 162.183L203.968 161.124L202.385 161.389C202.121 158.477 202.121 157.153 202.913 153.947C204.232 149.712 205.814 147.829 209.009 145.447L208.482 144.917C205.316 148.094 202.649 149.712 199.484 152.623C198.428 153.418 197.901 153.418 197.109 154.476L197.637 151.565C197.696 150.917 197.754 150.3 197.813 149.682C199.923 148.182 202.121 146.623 204.525 144.917V144.123L202.942 145.182V143.329C202.942 139.358 203.47 137.476 205.316 134.034C206.635 130.858 207.69 129.799 209.537 127.652L213.757 122.857L209.273 126.563C206.371 128.946 205.052 130.534 202.913 133.74C202.385 134.681 201.975 135.534 201.623 136.329C200.802 137.064 200.011 137.77 199.249 138.446C199.689 136.299 200.246 134.034 201.066 131.358C202.913 126.034 204.232 123.122 208.482 118.886L211.911 116.239L207.426 118.886C204.349 120.945 201.77 124.74 198.985 129.534C197.344 131.328 195.791 132.946 194.325 134.446C195.058 130.769 196.084 127.034 197.637 122.857C198.428 121.004 203.206 115.68 205.58 113.298L209.537 110.121L205.316 112.768C201.096 114.886 197.637 120.21 196.582 122.593C196.347 123.093 196.142 123.563 195.908 124.034L196.025 123.387C194.032 125.71 192.185 127.74 190.398 129.622C190.72 126.857 191.013 123.946 191.277 120.739C195.615 114.945 198.223 109.21 198.399 100.562C198.487 98.6501 198.311 97.003 198.018 95.4735C200.451 92.5616 203.763 90.738 208.218 90.738C213.523 90.738 214.842 95.5323 215.633 100.033C215.633 104.533 213.523 107.739 209.537 109.327C212.438 108.533 214.578 107.209 216.424 104.827C221.466 99.2384 217.216 88.3555 210.856 88.3555C205.433 87.9437 200.978 89.9144 197.52 93.3852C196.699 90.6203 195.497 87.9437 194.472 84.3553L193.416 81.7081C191.98 86.0613 190.661 90.2674 187.642 93.0322C187.056 80.2963 183.568 67.3839 175.684 57.5304C174.365 55.8245 172.87 54.1479 171.317 52.5008C171.727 52.5008 172.108 52.5008 172.519 52.5008C173.046 52.5008 173.545 52.5008 174.072 52.5008C181.077 57.7657 188.727 61.56 199.777 62.5895C200.802 62.7072 201.828 62.7954 202.825 62.8542C203.382 63.8543 203.733 64.972 203.733 66.325L203.47 67.9133L201.623 70.2958L201.74 70.2369ZM217.89 63.3248C218.945 63.3248 219.736 64.9131 217.362 64.9131C216.337 65.0014 215.311 64.7073 214.314 64.119C216.131 63.619 217.538 63.3248 217.89 63.3248ZM208.101 57.7363L207.045 56.148C207.837 56.148 208.364 56.148 208.628 55.8833C207.837 55.8833 208.628 55.6186 210.475 55.3538C210.475 56.4127 210.738 57.2069 211.266 58.001C211.53 58.7952 212.057 59.3246 212.849 59.5894L212.057 60.1188C211.676 60.4129 211.149 60.6482 210.533 60.8247C209.713 59.8835 208.892 58.8246 208.071 57.7363H208.101ZM208.042 62.5601C208.745 63.3837 209.537 64.0602 210.387 64.5896C209.83 64.7661 209.244 64.972 208.599 65.2073L207.016 65.7367V63.8837C206.928 63.5896 206.752 63.1778 206.576 62.7366C207.075 62.7072 207.573 62.6483 208.042 62.5601ZM173.222 44.8533C172.519 45.0298 171.845 45.2063 171.2 45.3828C169.969 44.3827 168.679 43.3532 167.39 42.3238C167.946 42.2355 168.503 42.1179 169.06 42.0296C170.35 43.0003 171.727 43.9415 173.222 44.8533ZM161.791 56.9422L163.11 58.5305C162.026 58.5305 161.117 58.5305 160.238 58.5893C159.007 57.2069 157.307 55.3833 155.226 53.3832C156.193 53.2361 157.16 53.1184 158.128 53.0008C159.271 54.2067 160.472 55.5009 161.791 56.9422ZM156.75 60.1482L158.86 62.7954L156.75 63.0601L154.904 60.6776C154.64 60.3835 154.376 60.1188 154.142 59.8541C154.728 59.7658 155.343 59.6776 155.988 59.6188C155.988 59.6188 156.047 59.6188 156.076 59.6188C156.34 59.8247 156.574 60.0305 156.779 60.1482H156.75ZM154.376 59.0599C154.054 59.0599 153.761 59.1187 153.467 59.1481C151.855 57.4422 150.419 55.9715 148.954 54.6479C149.481 54.5303 149.98 54.4126 150.478 54.295C152.471 56.2362 154.112 57.8834 155.343 59.0011C155.021 59.0011 154.728 59.0599 154.376 59.0893V59.0599ZM149.335 59.5599C148.514 59.6776 147.664 59.8541 146.697 60.1188L144.323 58.5305C143.414 57.8834 142.535 57.3245 141.685 56.8539C142.74 56.501 143.737 56.148 144.733 55.8539C146.404 57.0304 147.957 58.2363 149.364 59.5599H149.335ZM148.016 53.8538C146.433 52.5302 144.763 51.3831 142.711 50.2948C143.942 50.2948 145.085 50.2654 146.169 50.2359C147.4 51.3536 148.543 52.4713 149.599 53.5008C149.071 53.6185 148.543 53.7655 147.987 53.8832L148.016 53.8538ZM154.347 52.5596C153.467 51.7066 152.5 50.8242 151.504 49.9418C152.588 49.8536 153.673 49.7359 154.786 49.6183C155.607 50.4418 156.457 51.2948 157.307 52.2066C156.31 52.3243 155.314 52.4419 154.317 52.589L154.347 52.5596ZM150.507 49.03C148.983 47.7064 147.371 46.3534 145.642 45.0298C146.902 44.9416 148.162 44.8533 149.423 44.7357C151.005 46.0298 152.442 47.324 153.878 48.7064C152.735 48.8535 151.621 48.9712 150.507 49.0594V49.03ZM158.626 49.1182C159.447 49.0006 160.326 48.8829 161.234 48.7359C161.469 48.7064 161.703 48.677 161.938 48.6476C163.022 49.6771 164.078 50.7066 165.103 51.736C163.872 51.7654 162.7 51.8243 161.528 51.8831C160.56 50.9713 159.622 50.0595 158.626 49.1476V49.1182ZM157.629 48.1476C156.281 46.8828 154.904 45.6181 153.438 44.2945C154.523 44.1768 155.636 44.0592 156.75 43.9121C158.157 45.118 159.535 46.3828 160.912 47.6476C159.74 47.8241 158.655 48.0005 157.629 48.1476ZM161.205 43.3238C161.879 43.2356 162.524 43.1179 163.198 43.0297C164.488 44.2062 165.748 45.3533 167.008 46.471C166.51 46.5887 166.012 46.7063 165.514 46.824C164.136 45.6181 162.7 44.4709 161.205 43.3238ZM162.905 36.6764C164.4 38.2059 166.012 39.6472 167.771 41.059C167.214 41.1767 166.657 41.2649 166.1 41.3531C164.371 40.0001 162.583 38.6471 160.707 37.2941C160.502 37.147 160.326 37 160.121 36.8823C160.883 36.8823 161.674 36.8235 162.553 36.7647C162.671 36.7353 162.788 36.7058 162.905 36.6764ZM162.084 42.0296C161.352 42.1473 160.619 42.2355 159.886 42.3532C156.838 40.0884 153.643 38.0294 150.419 36.1764C152.705 36.5882 154.493 36.7941 156.34 36.8823C158.333 38.6177 160.238 40.3531 162.084 42.0296ZM171.581 37.0294C172.431 38.0294 173.339 38.9412 174.277 39.706L173.163 39.9707C172.665 40.0884 172.167 40.1766 171.669 40.2943C169.793 38.9118 168.152 37.5294 166.569 35.9999C167.829 35.794 169.031 35.5881 170.526 35.1764L171.581 37.0294ZM158.685 35.794C155.255 33.3233 152.53 31.5585 149.599 29.6467C152.676 30.382 155.197 30.7938 157.717 30.9408C159.095 32.5586 160.472 34.1175 161.909 35.6176C160.853 35.7058 159.769 35.7646 158.685 35.794ZM166.276 13.9106C173.281 13.9106 173.662 24.9111 163.638 24.5582C159.945 20.6462 161.322 13.9106 166.276 13.9106ZM158.333 25.3523C159.066 25.5582 159.74 25.7347 160.385 25.8818C160.971 26.6759 161.674 27.4113 162.553 27.9995L165.191 29.5878C163.521 29.7937 162.495 29.9996 161.117 30.0879C160.238 29.029 159.3 27.8819 158.333 26.6759L156.75 25.0876L158.333 25.3523ZM149.599 23.764L149.921 21.7345C152.471 24.6464 154.728 27.4113 156.897 30.029C153.438 29.7937 150.976 29.0584 147.195 27.7642C148.368 26.8524 149.247 25.5582 149.569 23.764H149.599ZM128.965 27.7348C133.449 28.529 135.852 30.1173 140.337 29.8526C142.388 29.7349 144.411 29.3525 146.081 28.4701C147.693 29.7349 149.188 30.9408 151.445 32.7645C152.676 33.7645 153.848 34.7352 155.021 35.7352C153.086 35.647 151.093 35.4411 149.071 35.1764L149.188 35.4999C146.14 33.8233 143.092 32.3821 140.073 31.2056C144.675 34.1763 150.155 38.2942 155.548 42.912C154.464 43.0297 153.38 43.1473 152.295 43.265C144.469 35.5881 138.695 32.9409 128.672 28.0583L126.034 26.9995L128.935 27.7936L128.965 27.7348ZM143.795 40.4707C145.349 41.559 146.726 42.5591 148.016 43.5591C146.697 43.6474 145.407 43.7356 144.118 43.8238C136.087 37.853 126.239 32.588 116.274 32.2056C115.951 32.2056 115.629 32.2056 115.306 32.2056C115.365 31.6762 115.453 31.1467 115.482 30.5879C115.57 29.4408 115.629 28.2937 115.599 27.1465C125.33 29.029 133.537 33.2645 143.795 40.4119V40.4707ZM89.2795 42.0885C88.0778 43.2944 86.8468 44.4121 85.5864 45.5004C83.5055 44.4121 81.6297 43.0297 80.1642 41.4414C80.1935 41.412 80.2521 41.3531 80.2814 41.3237C90.3346 30.1761 100.183 25.3817 114.398 27.1171C114.398 27.4113 114.398 27.7348 114.398 28.0289C114.398 29.5878 114.281 30.9997 114.105 32.3527C112.903 32.4409 111.819 32.6174 110.822 32.8821C110.353 31.2938 110.47 29.882 111.467 29.0878L112.258 28.5584L111.731 27.7642L109.357 29.0878C107.774 30.1467 106.191 30.9408 104.608 31.4997C103.202 30.2349 101.589 29.4996 99.8309 29.6173C95.8741 29.882 94.5259 33.8528 99.5671 33.8528C100.974 33.8528 101.941 33.6469 102.82 33.2939C103.348 34.0881 103.876 35.0293 104.286 36.0293C103.729 36.4411 103.202 36.8823 102.703 37.2647C101.795 35.5881 100.212 34.5881 97.9844 34.4116C90.3053 35.2058 94.0276 42.912 98.2482 40.7943C98.893 40.7943 99.5671 40.5884 100.329 40.2648C100.358 40.9119 100.388 41.559 100.388 42.1179V43.9709L99.0689 44.5004L99.5964 45.0298C101.443 43.9709 102.762 42.912 104.901 42.1179C106.748 41.3237 108.067 40.7943 110.207 40.5296L109.943 39.7354L108.888 40.0001L108.624 39.206C108.448 38.0883 108.126 37 107.686 35.9705C108.096 35.7646 108.507 35.5587 108.917 35.3528C109.063 35.9411 109.21 36.5882 109.386 37.3529C110.001 38.4118 110.734 39.3236 111.555 40.1178C106.25 49.1476 94.6138 49.883 86.2313 45.8534C86.6709 45.471 87.1399 45.118 87.6967 44.7945L90.0708 42.6767L89.2795 42.1473V42.0885ZM81.6003 52.1772C81.4831 52.8831 81.3952 53.6185 81.3952 54.3832C80.809 54.7362 80.2228 55.1185 79.6659 55.5009C79.6952 54.3244 79.7538 53.089 79.8125 51.7948C80.428 51.2948 81.1314 50.7948 81.8641 50.3242L81.6003 52.1772ZM74.185 73.943C70.4334 81.3257 66.8869 87.0907 63.106 92.3851C63.868 86.7084 65.0697 81.3552 67.2973 75.0019C69.73 68.0604 72.1627 62.8248 76.8522 58.8834C76.8522 64.4131 76.647 69.1781 74.185 73.943ZM59.0613 97.7677C58.3285 98.709 57.5372 99.6796 56.7751 100.621C57.9182 84.0318 60.3216 70.1193 67.9421 57.0598C69.5541 56.3245 70.7558 55.6186 71.8696 54.795C71.8696 55.0597 71.8696 55.3244 71.8109 55.5891V58.2363L68.1179 64.0896L68.9093 64.619C71.2834 60.6482 72.0747 59.0305 75.2695 56.1186C75.7971 55.5891 76.3246 55.0597 76.8522 54.5009C76.8522 55.5597 76.8522 56.6186 76.8522 57.6187C66.4766 66.5309 61.0543 81.5316 59.0613 97.7383V97.7677ZM58.2699 106.739C57.5958 107.592 56.9217 108.415 56.2769 109.268C56.3941 107.033 56.5113 104.827 56.6286 102.65C57.3613 101.739 58.0941 100.856 58.7975 99.9443C58.563 102.062 58.4165 104.18 58.2992 106.327C58.2992 106.474 58.2992 106.592 58.2992 106.739H58.2699ZM64.337 109.651C63.3698 110.827 62.4026 111.974 61.4647 113.151V111.916C61.4647 110.062 61.4647 109.268 61.7285 109.004C61.8457 107.18 61.9336 105.445 62.0508 103.797C63.3112 102.297 64.6594 100.738 66.0956 99.0913C65.2456 102.386 64.6594 105.945 64.337 109.68V109.651ZM70.492 113.474C69.5834 114.533 68.7041 115.563 67.8542 116.592C67.9128 112.857 68.0593 109.415 68.3524 106.209C69.5541 104.798 70.8144 103.356 72.192 101.827C71.2248 105.445 70.7265 109.327 70.492 113.445V113.474ZM76.5591 114.857V117.239C75.504 118.298 74.5367 119.298 73.5988 120.269C73.5988 119.269 73.5988 118.239 73.6281 117.239C73.6574 115.063 73.7161 113.004 73.804 111.033C74.5954 110.21 75.4453 109.327 76.3246 108.445C76.2367 110.327 76.5591 112.092 76.5591 114.857ZM77.2332 132.975C76.7056 133.711 76.1488 134.564 75.504 135.564C75.2988 135.828 75.0936 136.093 74.8885 136.329C74.5367 134.328 74.2729 132.181 74.0385 129.916C75.035 128.799 76.1195 127.681 77.3798 126.416C77.0867 128.505 77.0281 130.681 77.2332 132.946V132.975ZM82.6555 136.093L83.4469 138.476L82.1279 140.064L81.6003 137.946C80.6624 135.387 80.0762 133.534 79.8125 131.652C80.4573 130.887 81.1314 130.122 81.9228 129.328C81.9228 129.446 81.8641 129.593 81.8641 129.711C81.6003 131.828 81.8641 133.946 82.6555 136.093ZM78.1418 138.476C78.9625 141.799 80.1349 144.8 81.571 147.506C80.4866 147.211 79.3435 147.123 78.1418 147.241C78.0539 147.241 77.9953 147.241 77.9073 147.27C78.2298 146.829 78.5521 146.388 78.9332 145.917L78.1418 145.123L77.3505 146.182L76.5591 143.27C76.0315 141.682 75.5626 139.858 75.1815 137.887C75.4746 137.476 75.7384 137.064 76.0315 136.623C76.5591 135.917 76.9987 135.299 77.4384 134.711C77.6142 135.946 77.8487 137.182 78.1418 138.476ZM88.4002 156.124C88.4588 156.33 88.5467 156.565 88.6053 156.771C86.8468 157.241 85.1761 157.977 83.6227 158.918C83.5055 158.83 83.3589 158.741 83.2124 158.653L81.8934 157.859L82.421 159.183C82.4796 159.33 82.5089 159.477 82.5383 159.624C81.6003 160.271 80.7504 160.977 79.9297 161.742C78.8159 161.359 77.4384 160.859 75.8264 161.565C73.4523 162.889 72.1334 164.742 72.1334 166.889C72.1334 168.448 72.8954 169.771 74.0971 170.771C73.335 172.919 72.9247 175.213 72.9247 177.536C72.9247 190.008 78.4935 200.391 89.8657 208.862L93.5587 211.509C88.9571 209.126 84.5606 205.891 80.34 201.155C70.5506 189.743 66.3007 176.978 66.5645 165.565C66.5645 161.242 67.7369 157.065 69.9644 153.918C70.6386 155.829 71.3713 157.888 72.1334 160.506L72.3971 162.359C72.6609 158.388 72.9247 156.241 74.7712 152.8C75.4746 151.212 76.1195 150.035 76.8522 148.888C77.3798 148.741 77.9073 148.623 78.4642 148.535C79.9297 148.359 81.2486 148.535 82.4796 149.006C84.1503 151.77 86.1433 154.094 88.4295 156.065L88.4002 156.124ZM85.7916 151.417C86.0261 151.682 86.2313 151.918 86.4364 152.212C86.202 151.947 85.9968 151.682 85.7916 151.417ZM107.422 163.124C109.708 165.301 111.262 168.065 111.672 171.301C111.203 171.213 110.822 171.124 110.412 171.124L109.884 168.742L109.62 167.418L105.136 167.154C105.4 167.418 105.664 167.948 105.664 168.212C105.664 169.271 106.191 168.742 106.191 171.654C108.038 171.654 109.093 171.654 109.884 171.919C109.884 172.654 109.913 173.33 109.913 173.919C107.686 173.595 105.429 173.625 103.201 174.007C103.026 172.86 103.348 172.154 104.579 171.889H105.37L104.579 171.624H103.524C102 172.213 100.886 173.33 100.681 174.625C95.2 176.36 90.5398 180.537 88.9864 187.125C86.2899 185.478 84.5313 182.801 85.0003 179.595C85.264 176.683 85.5278 174.272 88.6933 174.272C90.8036 174.536 92.1225 175.595 94.5259 175.86C97.6913 176.125 100.886 174.007 100.622 170.536C100.358 169.213 99.5671 168.683 98.2482 168.948L96.1379 169.213L97.9844 169.477C98.512 169.477 99.0396 169.742 99.3033 170.271C100.095 172.124 98.2482 172.654 96.1379 171.86C94.2914 170.536 91.3604 171.066 87.6674 172.919C82.6848 175.831 82.0986 184.654 88.7519 188.302C88.6053 189.155 88.4881 190.037 88.4588 190.978C88.195 202.391 94.819 210.891 105.136 215.95L105.458 216.097C103.436 215.48 101.472 214.832 99.5085 214.097H99.5671L90.8329 207.979C79.4607 200.273 74.4195 189.919 73.6281 177.448C73.6281 175.301 74.0092 173.183 74.6833 171.183C79.7245 174.419 90.3053 172.654 90.3053 160.712C90.3053 159.683 90.1881 158.683 90.0122 157.683C90.1587 157.683 90.276 157.653 90.4225 157.624C95.0828 160.918 100.827 162.771 107.422 163.036V163.124ZM92.6208 157.594C93.5294 157.594 94.4379 157.683 95.3758 157.859C99.4206 158.33 103.201 159.741 106.132 161.977C101.208 161.565 96.6655 160.183 92.6501 157.594H92.6208ZM122.136 157.712C123.748 161.742 127.558 165.036 133.185 165.036C141.245 165.036 149.745 160.594 153.702 151.918C155.314 150.623 156.486 149.594 157.571 148.535C157.454 150.417 157.307 152.418 157.16 154.388C154.581 156.418 151.709 158.388 148.28 160.536L148.807 161.065L150.39 160.271C150.918 162.124 150.918 163.977 150.39 165.859C149.599 169.83 148.016 171.977 144.821 174.36L141.128 177.536L145.612 175.419C149.569 173.301 151.445 171.713 153.292 167.448C153.731 166.683 154.024 165.83 154.259 164.918C154.962 164.359 155.636 163.8 156.281 163.271C156.164 164.153 156.076 164.948 155.959 165.595C154.64 170.095 153.057 175.948 147.752 180.213L144.059 182.596L148.016 180.743C152.793 178.242 155.607 174.419 157.248 169.948C158.304 169.154 159.3 168.389 160.238 167.654C158.714 174.242 155.871 180.095 149.862 185.007L146.169 188.184L150.947 185.272C156.193 182.184 159.095 178.184 160.971 173.448C162.319 172.271 163.579 171.183 164.781 170.154C164.224 172.536 163.55 174.919 162.729 177.242C157.043 182.419 152.236 187.39 146.697 194.537C145.144 196.479 143.795 200.214 142.535 204.038C141.773 204.626 140.982 205.156 140.132 205.626C142.945 195.861 135.618 184.449 126.591 184.449C125.36 184.507 124.187 184.713 123.044 185.066C122.458 182.684 121.432 180.448 119.967 178.625C118.618 177.389 117.094 176.389 115.482 175.625V173.566C116.801 174.36 117.593 174.889 119.439 175.683L119.175 174.36C118.384 173.566 118.12 172.507 118.12 171.448C119.967 171.448 121.549 170.389 122.341 168.271C122.604 166.948 121.549 165.359 119.703 166.154C117.856 166.948 117.065 168.271 117.065 170.124C116.274 169.86 115.746 169.33 115.482 169.065L114.163 168.007C114.955 169.065 114.691 170.389 114.691 172.242C114.427 172.242 114.163 171.977 113.372 171.713C113.284 171.713 113.196 171.683 113.108 171.654C112.815 168.389 111.408 165.536 109.298 163.212C114.662 163.183 119.029 160.977 122.194 157.771L122.136 157.712ZM126.854 145.711C126.356 149.064 124.773 152.594 122.399 155.477C121.813 151.77 123.337 147.859 126.854 145.711ZM127.939 145.123C129.404 144.447 131.163 144.035 133.185 144.035C139.282 144.035 142.447 146.947 142.447 150.417C142.447 153.888 139.018 157.594 132.658 157.859C130.811 157.859 128.173 156.271 128.437 154.418C128.437 152.565 129.492 151.506 131.602 151.506C133.713 151.241 135.559 154.418 133.449 154.682L132.394 155.212V155.741L133.977 155.212C137.142 154.418 137.933 148.829 132.394 148.829C129.492 148.829 126.561 151.476 127.353 154.682C127.616 157.594 129.99 158.653 132.394 158.918C144.294 159.712 148.28 142.976 133.449 142.976C131.339 142.976 129.522 143.299 127.997 143.858C128.056 139.946 126.737 136.299 123.923 133.946C123.367 133.564 122.751 133.211 122.106 132.887C123.806 131.858 125.037 130.328 125.975 128.652C126.473 128.71 126.942 128.799 127.353 128.887C127.646 129.005 127.939 129.093 128.203 129.181C128.408 131.387 129.199 133.534 130.665 135.417C130.899 136.711 132.306 137.534 132.101 138.976C131.837 140.829 131.046 141.358 129.727 141.093L128.408 140.564L128.935 141.358C129.199 141.623 129.463 141.623 129.99 141.623C130.254 141.623 130.518 141.888 130.782 142.152C132.482 142.799 134.885 141.182 135.618 139.27C137.171 140.035 138.989 140.652 141.099 141.093C152.471 143.211 155.666 128.093 146.404 126.74C143.238 126.475 140.571 128.858 140.571 131.799C140.571 135.24 143.209 135.505 145.056 134.446L146.638 133.652L146.375 132.858L145.583 133.122C143.209 133.917 142.682 132.064 142.418 130.74C142.154 128.887 144 127.828 146.111 127.828C153.262 127.828 152.207 141.358 141.07 140.035C139.018 139.682 137.259 139.064 135.794 138.27C135.794 138.152 135.794 138.034 135.794 137.917C135.53 136.593 133.947 136.064 134.211 134.211C134.475 133.152 135.266 132.358 136.321 132.093L137.64 131.828L136.058 131.564C133.654 131.328 131.925 132.181 131.016 133.711C130.284 132.446 129.815 131.064 129.58 129.622C130.459 129.887 131.28 130.152 132.335 130.74C131.544 130.475 131.544 128.622 131.808 125.416C131.925 125.24 132.013 125.034 132.101 124.857C133.156 125.063 134.27 125.151 136.028 125.151C136.292 123.828 136.556 123.298 136.82 123.034C137.083 121.975 137.611 121.181 138.139 120.651C137.875 120.916 137.083 120.916 135.237 120.916C134.973 120.651 134.709 120.651 134.182 120.651C133.918 120.651 133.654 120.651 133.39 120.387C132.511 121.563 131.925 122.593 131.515 123.475C131.104 123.328 130.723 123.151 130.371 122.975C132.101 118.651 136.175 115.122 142.125 114.798C151.914 114.533 160.121 121.71 160.121 131.534V134.181L156.691 137.887C154.845 139.476 152.735 140.799 149.804 142.123V142.917L152.178 141.593L152.442 143.976C153.761 154.859 141.597 164.153 133.127 164.153C127.353 163.653 123.953 160.565 122.722 156.947C125.741 153.565 127.528 149.212 127.88 145.035L127.939 145.123ZM117.71 131.328C116.42 128.71 121.256 128.269 125.066 128.593C124.129 130.269 122.575 131.887 120.934 132.387C119.908 131.946 118.824 131.593 117.71 131.328ZM130.811 128.122V128.652L130.02 128.387C129.844 128.269 129.697 128.21 129.522 128.122C129.492 126.828 129.639 125.563 129.99 124.328C130.401 124.475 130.782 124.593 131.163 124.681C130.635 126.387 130.811 127.505 130.811 128.152V128.122ZM128.173 127.446C127.675 127.24 127.235 127.093 126.825 127.005C127.353 125.799 127.792 124.593 128.203 123.504C128.408 123.622 128.613 123.71 128.847 123.828C128.466 125.004 128.232 126.24 128.173 127.475V127.446ZM132.599 123.828C132.863 123.093 133.127 122.387 133.742 121.769C134.006 122.034 134.533 122.034 135.325 122.034C135.852 122.034 136.116 122.034 136.38 121.769C136.38 122.034 136.38 122.298 136.116 122.298V122.563C135.852 123.357 135.589 123.093 135.325 124.151C134.358 124.151 133.449 124.034 132.599 123.828ZM165.484 134.24L166.012 130.799L167.858 129.74L168.122 132.122C168.269 134.181 168.269 135.593 168.21 136.917C167.389 137.77 166.481 138.623 165.543 139.505C165.514 137.887 165.455 136.181 165.455 134.27L165.484 134.24ZM190.017 154.212C189.254 154.8 188.492 155.388 187.76 155.977C187.906 153.771 188.082 151.682 188.258 149.682C188.932 149.094 189.635 148.447 190.339 147.829C190.192 149.917 190.075 152.035 189.987 154.212H190.017ZM193.123 145.329C193.973 144.564 194.823 143.77 195.703 142.976C195.409 145.329 195.204 147.829 194.999 150.388C194.266 150.947 193.534 151.506 192.83 152.035C192.889 149.682 192.977 147.447 193.123 145.329ZM181.224 162.33C182.162 161.506 183.129 160.712 184.067 159.947L183.393 166.859C182.249 167.918 181.136 168.977 179.787 170.33C180.344 168.124 180.813 165.418 181.253 162.33H181.224ZM168.533 166.889C169.5 166.065 170.438 165.271 171.346 164.477C170.907 166.683 170.467 168.801 170.027 170.801C168.855 171.801 167.741 172.742 166.657 173.683C166.95 172.713 167.272 171.683 167.565 170.595C167.917 169.33 168.21 168.095 168.503 166.889H168.533ZM163.286 165.183C164.253 164.389 165.221 163.624 166.159 162.83C165.895 164.536 165.602 166.271 165.25 167.977C164.195 168.86 163.081 169.771 161.879 170.771C162.436 169.007 162.876 167.154 163.286 165.183ZM158.333 166.095C158.772 164.124 159.124 162.3 159.417 160.624C160.179 159.977 160.912 159.359 161.616 158.741C161.352 161.3 161 163.8 160.531 166.183C159.652 166.859 158.743 167.565 157.747 168.33C157.952 167.595 158.157 166.859 158.304 166.095H158.333ZM154.376 158.124C155.343 157.33 156.223 156.594 157.043 155.888C156.867 157.859 156.691 159.771 156.486 161.477C155.871 161.977 155.226 162.506 154.552 163.065C154.669 161.624 154.611 160.006 154.376 158.124ZM160.56 152.888C161.176 152.359 161.762 151.829 162.319 151.329C162.143 153.271 161.997 155.153 161.821 157.006C161.147 157.594 160.472 158.183 159.769 158.771C160.121 156.682 160.385 154.741 160.56 152.888ZM172.636 141.388C173.105 140.976 173.545 140.593 173.955 140.211V142.182C173.955 143.476 173.955 144.741 173.926 145.947C173.515 146.358 173.076 146.8 172.636 147.211C172.196 147.623 171.757 148.035 171.317 148.417C171.434 146.476 171.464 144.505 171.464 142.505C171.845 142.123 172.226 141.741 172.607 141.358L172.636 141.388ZM182.777 147.8C183.48 147.123 184.155 146.447 184.799 145.8C184.741 147.535 184.711 149.241 184.682 151.006C183.891 151.682 183.099 152.418 182.279 153.182C182.455 151.447 182.601 149.653 182.777 147.829V147.8ZM178.703 154.682C178.703 155.271 178.703 155.859 178.703 156.418C177.531 157.447 176.446 158.418 175.391 159.33C175.655 157.594 175.889 155.829 176.153 154.065C176.212 154.006 176.3 153.947 176.358 153.888C177.238 153.065 178.058 152.3 178.879 151.535C178.82 152.565 178.791 153.624 178.732 154.682H178.703ZM176.388 151.947C176.681 149.417 176.944 146.947 177.179 144.447C177.912 143.741 178.644 143.035 179.348 142.329C179.201 144.594 179.055 146.947 178.937 149.388C178.117 150.182 177.267 151.035 176.388 151.918V151.947ZM173.163 155.094C172.196 156.035 171.258 156.918 170.379 157.741C170.76 155.182 171.053 152.653 171.229 150.123C171.786 149.623 172.314 149.094 172.9 148.564C173.222 148.241 173.545 147.947 173.867 147.653C173.75 150.064 173.574 152.447 173.163 155.094ZM167.331 152.123C166.598 152.771 165.895 153.418 165.221 154.035C165.484 151.947 165.602 150.064 165.66 148.241C166.364 147.594 167.038 146.917 167.771 146.211C167.653 148.153 167.507 150.123 167.331 152.123ZM164.693 157.594C164.81 156.977 164.898 156.388 164.986 155.829C165.719 155.182 166.452 154.506 167.214 153.829C166.979 156.33 166.715 158.859 166.364 161.389C165.455 162.183 164.546 162.948 163.579 163.742C163.96 161.771 164.312 159.712 164.693 157.594ZM170.086 159.447C170.965 158.683 171.903 157.859 172.841 157.006C172.577 158.594 172.226 160.271 171.815 162.124C171.815 162.242 171.757 162.359 171.757 162.477C170.848 163.242 169.939 164.036 169.031 164.801C169.441 162.977 169.793 161.212 170.086 159.447ZM175.069 161.271C176.182 160.271 177.355 159.241 178.586 158.094C178.439 160.241 178.175 162.212 177.794 164.095C176.593 165.124 175.362 166.183 174.043 167.33C174.395 165.33 174.717 163.33 175.039 161.271H175.069ZM182.074 155.006C182.836 154.359 183.686 153.653 184.624 152.829C184.565 154.388 184.477 156.006 184.272 157.83L184.184 158.771C183.275 159.506 182.337 160.271 181.399 161.065C181.634 159.153 181.868 157.124 182.103 154.977L182.074 155.006ZM187.437 161.065C187.496 159.712 187.584 158.388 187.672 157.124C188.434 156.535 189.196 155.977 189.958 155.388C189.899 157.3 189.811 159.3 189.753 161.359C189.167 161.83 188.522 162.33 187.73 162.918C187.584 163.065 187.437 163.183 187.261 163.33L187.467 161.036L187.437 161.065ZM188.463 147.711C188.698 145.535 188.932 143.417 189.167 141.299C189.899 140.505 190.661 139.711 191.423 138.917C191.013 141.241 190.72 143.594 190.515 145.976C189.841 146.535 189.167 147.123 188.463 147.711ZM184.917 143.682C184.272 144.299 183.627 144.917 182.982 145.535C183.187 143.123 183.422 140.652 183.656 138.123C184.448 137.329 185.21 136.505 186.001 135.711C185.884 136.446 185.767 137.211 185.62 137.946C185.268 140.064 185.063 141.917 184.946 143.682H184.917ZM177.355 142.564C177.531 140.535 177.677 138.476 177.794 136.446C178.556 135.623 179.26 134.828 180.022 133.975C179.846 136.093 179.67 138.27 179.524 140.505C178.82 141.182 178.117 141.858 177.384 142.564H177.355ZM173.955 138.505C173.339 139.123 172.724 139.711 172.108 140.329C171.903 140.564 171.698 140.77 171.464 140.976C171.464 138.917 171.376 136.799 171.258 134.593C171.932 133.858 172.665 133.034 173.427 132.093L173.691 134.475C173.955 134.74 173.955 136.064 173.955 138.446V138.505ZM168.122 140.858C168.034 142.123 167.946 143.388 167.858 144.682C167.126 145.447 166.393 146.153 165.66 146.858C165.66 144.77 165.631 142.682 165.572 140.417C166.481 139.505 167.331 138.682 168.181 137.799C168.152 138.74 168.122 139.682 168.122 140.858ZM162.583 148.3C162.524 148.859 162.495 149.388 162.436 149.947C161.85 150.476 161.264 151.006 160.678 151.506C160.853 149.388 160.941 147.329 160.971 145.152C161.528 144.594 162.143 143.947 162.847 143.27C162.905 143.211 162.964 143.152 163.022 143.094C163.022 144.594 162.905 146.241 162.583 148.329V148.3ZM157.688 146.8C156.809 147.564 155.871 148.388 154.698 149.359C155.373 147.27 155.812 144.976 155.959 142.476L156.486 139.564L158.069 138.505L157.805 142.476C157.805 143.682 157.747 145.182 157.688 146.8ZM161.85 179.537C159.359 185.772 155.754 191.714 150.39 196.92C149.13 198.038 147.987 199.126 146.902 200.155C148.045 197.243 149.305 194.449 150.918 191.89C154.142 186.684 157.893 182.978 161.85 179.566V179.537ZM140.894 209.097C140.014 209.45 139.252 209.597 138.49 210.185L139.545 207.273C139.545 207.273 139.604 207.126 139.633 207.067C140.425 206.685 141.216 206.244 141.978 205.803C141.626 206.95 141.245 208.067 140.894 209.126V209.097ZM118.12 199.508C117.094 197.626 116.567 195.479 116.801 193.184C117.417 189.919 119.263 187.302 122.604 186.743C123.542 191.596 122.018 196.537 118.149 199.508H118.12ZM123.367 186.625C124.187 186.566 125.066 186.625 126.063 186.802C132.423 187.596 137.171 195.037 136.38 201.685C136.292 203.685 136.292 205.479 136.145 207.097C134.944 207.362 133.625 207.509 132.159 207.509C127.235 207.509 121.754 204.832 118.853 200.596C122.868 197.096 124.187 191.655 123.396 186.596L123.367 186.625ZM114.134 177.242L112.61 176.86C112.698 176.536 112.786 176.213 112.844 175.86C113.372 176.007 113.9 176.183 114.427 176.389C114.427 176.772 114.398 177.007 114.163 177.242H114.134ZM114.925 178.86L116.772 180.448C115.98 182.566 114.134 180.978 113.87 180.978L114.925 178.86ZM101.003 176.272C101.56 176.772 102.322 176.948 102.733 177.36C100.3 178.213 98.6292 179.772 99.0689 182.566C99.0689 187.066 106.748 183.096 108.858 179.39L109.913 177.272H110.441L111.35 177.536C109.738 184.331 103.758 188.949 96.1672 188.949C93.8811 189.037 91.6242 188.537 89.7484 187.596C91.1553 181.89 95.7276 178.036 101.033 176.301L101.003 176.272ZM102.996 177.889C102.996 177.889 102.996 178.007 102.996 178.066C103.26 179.125 102.996 179.919 102.469 180.184L101.414 180.978L102.733 180.448C104.579 180.184 105.634 179.125 105.634 177.272C105.634 177.242 105.634 177.213 105.634 177.154C106.777 176.978 107.979 176.919 109.093 177.007C106.982 182.86 99.8309 185.772 99.8309 182.066C99.8309 180.037 101.15 178.713 102.967 177.919L102.996 177.889ZM105.546 176.713C105.312 176.066 104.901 175.742 104.462 175.448C106.25 175.154 108.067 175.095 109.825 175.301C109.738 175.713 109.62 176.095 109.386 176.478C108.126 176.478 106.807 176.536 105.546 176.713ZM110.969 176.448H109.913C110.031 176.036 110.119 175.683 110.207 175.33C110.705 175.389 111.174 175.478 111.672 175.566C111.643 175.919 111.584 176.242 111.525 176.566L110.969 176.419V176.448ZM110.441 171.948C110.969 171.948 111.379 172.036 111.76 172.154C111.819 172.86 111.819 173.566 111.76 174.301C111.32 174.213 110.91 174.095 110.47 174.036C110.588 173.301 110.588 172.624 110.47 171.948H110.441ZM113.02 174.654C113.02 174.448 113.079 174.272 113.108 174.066C113.137 173.595 113.167 173.124 113.137 172.654C113.225 172.654 113.284 172.713 113.372 172.742C114.163 173.007 114.427 173.272 114.691 173.272C114.691 173.977 114.574 174.536 114.515 175.154C114.017 174.948 113.548 174.801 113.05 174.625L113.02 174.654ZM115.453 172.477V170.624L116.508 170.889C116.684 171.066 116.86 171.154 117.036 171.154C117.036 171.683 117.036 171.948 117.299 172.213L117.563 173.536L115.453 172.477ZM118.12 170.36L118.648 169.301C119.439 166.389 121.549 168.242 120.23 169.301C119.439 170.095 118.911 170.36 118.12 170.36ZM109.65 170.889C108.858 170.889 108.858 170.624 108.067 170.624C107.803 170.624 107.539 170.624 107.276 170.36L106.748 168.242H108.858C109.122 169.301 109.65 170.095 109.65 170.889ZM48.5978 157.183C49.2426 156.124 49.8874 155.065 50.5615 154.006C51.8511 160.418 53.5804 166.83 55.9252 172.742C62.6077 190.302 69.6713 203.038 84.6485 212.538C80.2228 210.45 78.3763 208.567 74.185 205.42C64.9818 198.302 59.7061 188.537 47.6892 188.419C48.9788 184.037 49.5943 179.948 49.5943 177.007C49.5943 169.536 49.2133 163.183 48.6271 157.183H48.5978ZM41.8859 136.093C41.7393 134.064 41.5634 132.211 41.4169 130.446C41.9445 129.681 42.5014 128.916 43.0582 128.122C43.3806 130.652 43.703 133.328 44.0255 136.27C43.3513 137.24 42.7358 138.211 42.091 139.182C42.0324 138.152 41.9738 137.123 41.8859 136.093ZM40.5669 122.21L41.3583 121.24C41.6221 120.916 41.8565 120.622 42.1203 120.328C42.3548 122.328 42.5893 124.328 42.8531 126.387C42.2962 127.122 41.7686 127.857 41.241 128.563C41.0359 126.387 40.8014 124.298 40.5669 122.24V122.21ZM38.6325 132.152C37.7825 133.387 36.9618 134.593 36.1412 135.828C36.1998 133.093 36.0826 130.593 35.8481 128.093L37.8704 125.563C38.1635 127.828 38.4273 130.005 38.6325 132.152ZM34.4998 114.857V111.68L35.8188 110.886L36.0826 112.739C36.2584 114.033 36.4343 115.239 36.6101 116.445C36.0239 117.269 35.4377 118.033 34.8516 118.769C34.7343 117.533 34.6171 116.239 34.4998 114.857ZM38.9842 109.533L38.7204 107.415L40.8307 104.503V106.356C40.9186 107.592 41.0066 108.768 41.0945 109.915C40.8307 110.327 40.5669 110.71 40.3031 111.151C39.9807 111.621 39.6583 112.063 39.3652 112.504C39.248 111.563 39.1014 110.592 38.9842 109.562V109.533ZM43.7617 99.709C43.7617 96.5324 45.0806 95.4735 45.872 92.2675C46.3409 90.385 46.5168 88.4732 46.3995 86.6495C55.0459 82.8552 57.801 69.9722 63.575 58.4422C63.8387 58.4128 64.0732 58.3834 64.3077 58.3246C57.2441 71.59 54.1666 87.7378 52.408 105.915C51.9097 106.503 51.4115 107.092 50.9132 107.68L49.5064 109.357C49.477 102.562 49.7408 97.3265 50.1218 94.9147L52.7597 83.5023C50.4149 93.1205 47.8943 98.7678 43.703 105.739C43.703 103.945 43.703 101.974 43.7617 99.709ZM36.0239 85.4142C34.7929 84.7671 33.7964 83.8259 32.9757 82.7082C33.2688 82.5905 33.5912 82.5023 33.9723 82.4434C35.3205 82.4434 36.0826 84.0906 36.0239 85.4142ZM33.943 81.6493C33.4154 81.6493 32.9171 81.7375 32.4482 81.914C30.8068 79.1786 30.2793 75.5902 30.8654 72.4429C33.9723 72.09 36.8446 72.943 39.2187 74.6489C36.8446 74.8548 34.705 75.2078 34.705 78.2079C34.4412 81.1199 38.6618 83.5317 39.7463 81.3846L40.5376 80.3257L39.7463 80.8551C38.6911 81.6493 37.3722 80.8551 37.3722 79.5315C37.3722 77.6197 39.629 77.5903 41.8859 77.1491C43.4686 79.0609 44.6116 81.4728 45.1392 84.12L43.9082 85.7671C42.941 86.1495 41.9152 86.4142 40.8014 86.4731C39.3945 86.5613 38.1635 86.3554 37.0498 85.9436C37.6653 84.3847 35.9067 81.6787 33.943 81.6787V81.6493ZM45.2565 84.6494C45.2565 84.6494 45.3151 84.9142 45.3151 85.0318C44.9927 85.2377 44.6703 85.4142 44.3479 85.5612L45.2565 84.6494ZM46.0185 83.8847L48.246 81.6493C52.4666 77.1491 53.2873 69.4428 56.7165 61.2071C57.0975 60.1482 57.5372 59.1187 57.9768 58.1481C58.7096 58.3246 59.4423 58.4422 60.175 58.5011C54.8993 69.2957 52.027 80.1786 46.1357 84.5024C46.1064 84.2965 46.0478 84.0906 46.0185 83.9141V83.8847ZM52.4959 46.5887C53.2873 48.3535 53.8149 50.3536 54.02 52.589C53.258 51.2948 52.6718 49.6771 52.4666 47.6476C52.4666 47.2652 52.4666 46.9122 52.4666 46.5887H52.4959ZM60.4095 41.5296C61.3181 41.5296 62.6664 42.0885 64.1318 43.0297C62.6077 46.9122 60.5561 50.6183 58.2699 55.3244L57.9182 56.0598C57.5665 55.9127 57.2441 55.7068 56.9217 55.5009V55.295C57.9768 49.9712 57.7717 47.0593 58.4458 41.5296C59.1199 41.5002 59.794 41.5002 60.4095 41.5002V41.5296ZM58.6216 40.3237C59.1785 34.1469 61.2595 27.2054 64.5715 20.9109C66.3301 23.8228 67.2386 27.4995 66.799 31.9703C66.5059 35.3234 65.8611 38.1765 64.9818 40.8531C63.7801 40.4707 62.5198 40.2648 61.2302 40.206C60.3802 40.1766 59.5009 40.206 58.6216 40.2943V40.3237ZM80.6917 44.0592L77.6142 47.3829C76.4419 48.9123 75.3281 50.1771 74.2729 51.2654C74.185 50.383 73.9799 49.5006 73.6574 48.677C75.2988 46.5887 77.116 44.5298 79.109 42.4414C79.578 43.0003 80.1056 43.5297 80.6624 44.0297L80.6917 44.0592ZM74.185 56.148V54.295C74.2729 53.7361 74.3316 53.1773 74.3316 52.6478C74.8591 52.1184 75.416 51.5301 76.0315 50.8536L76.8229 50.0595V53.2361C75.9143 54.1479 75.035 55.1185 74.185 56.1774V56.148ZM71.7523 53.5008C70.7851 54.2361 69.8765 54.8244 68.9972 55.295C69.73 54.1185 70.5213 52.942 71.342 51.7948C71.5178 52.3537 71.6644 52.942 71.7523 53.5302V53.5008ZM72.4558 46.2946C72.4558 46.2946 72.3385 46.1475 72.3092 46.0593L74.4781 43.6768L72.4851 46.2946H72.4558ZM70.1696 49.1771C68.3524 51.5301 66.6818 54.0008 65.2163 56.6186C64.9525 56.6774 64.6887 56.7069 64.4249 56.7657C65.949 53.8832 67.7369 51.1477 69.8472 48.7064C69.9644 48.8829 70.0524 49.03 70.1696 49.2065V49.1771ZM60.9371 56.9127C60.2337 56.8539 59.4716 56.6774 58.7389 56.4127C60.9078 51.7654 63.3405 47.8241 65.1577 43.7356C66.0956 44.4415 67.0335 45.2651 67.8835 46.2063C65.0991 49.53 62.8422 53.2067 60.9371 56.9127ZM56.57 57.7069C56.7458 57.7657 56.9217 57.8246 57.1268 57.8834L56.1889 59.8541L56.57 57.7069ZM56.2769 55.0891C55.7786 54.7068 55.3097 54.2655 54.87 53.7655C54.6941 50.5889 53.9321 47.6476 52.7011 45.1769C53.3459 42.7356 55.2803 41.912 57.3613 41.6473C56.8044 46.6769 56.7165 50.883 56.2769 55.0597V55.0891ZM54.87 56.9422C55.2217 57.148 55.6027 57.3245 55.9838 57.501C55.4855 60.8247 54.6355 64.2366 53.0235 68.1192L52.2321 70.7664L52.7597 68.1192C53.8149 63.8837 54.6062 61.4718 54.87 56.9716V56.9422ZM51.8511 114.974C51.1477 115.857 50.4443 116.798 49.6822 117.739C49.5943 115.504 49.5357 113.357 49.5064 111.357C50.4149 110.268 51.3235 109.18 52.2028 108.121C52.1149 109.033 52.027 109.945 51.9684 110.886C51.9097 112.268 51.8804 113.651 51.8511 115.004V114.974ZM51.8218 116.416C51.8218 119.445 51.8804 122.387 52.0563 125.24C51.6753 125.74 51.2942 126.269 50.8839 126.799C50.6494 127.093 50.4443 127.387 50.2098 127.681C50.0046 124.74 49.8288 121.887 49.7115 119.151C50.4443 118.21 51.1477 117.298 51.8218 116.386V116.416ZM44.8168 120.945C44.6996 119.681 44.5823 118.534 44.4651 117.416C45.2858 116.416 46.1357 115.416 46.9271 114.416C46.9271 116.328 46.9857 118.534 47.0443 120.945C46.4875 121.622 45.9013 122.328 45.3151 123.063C45.1978 123.21 45.0806 123.357 44.9634 123.534C44.9047 122.681 44.8461 121.828 44.7875 120.945H44.8168ZM46.9271 112.416L44.2892 115.592C44.0548 113.092 43.8789 110.857 43.7617 108.474C44.7582 107.004 45.6961 105.445 46.8978 103.18V109.033C46.8978 109.974 46.8978 111.121 46.8978 112.474L46.9271 112.416ZM40.3031 113.239C40.6549 112.768 40.9479 112.357 41.2704 111.945C41.4755 114.21 41.6807 116.357 41.9152 118.445L41.3583 119.092C41.0066 119.504 40.6842 119.887 40.3324 120.298C40.098 118.357 39.8635 116.386 39.5704 114.269C39.8049 113.945 40.0393 113.592 40.2738 113.269L40.3031 113.239ZM45.1099 125.328C45.2858 125.093 45.4323 124.887 45.6082 124.681C46.1357 123.975 46.634 123.298 47.1323 122.622C47.2202 125.269 47.3668 128.152 47.6012 131.211C47.015 132.034 46.4288 132.828 45.9013 133.593C45.6082 130.946 45.3737 128.21 45.1392 125.328H45.1099ZM47.7185 133.034C47.9236 135.652 48.1874 138.387 48.5391 141.182C48.0409 141.946 47.5426 142.711 47.0443 143.476C46.7219 140.829 46.3995 138.152 46.0771 135.387C46.6047 134.623 47.1616 133.828 47.7185 133.064V133.034ZM50.3563 129.475C50.6201 129.122 50.8839 128.769 51.177 128.387C51.5287 127.916 51.8511 127.446 52.1735 126.975C52.3494 129.711 52.6132 132.387 52.9356 134.976C52.2908 135.828 51.7046 136.652 51.1184 137.476C50.8253 134.77 50.5615 132.093 50.3563 129.446V129.475ZM67.2973 145.123C67.4438 145.858 67.6197 146.564 67.7955 147.211C67.2093 148.359 66.5938 149.594 65.9783 150.976L65.187 147.535C64.9232 146.358 64.6887 145.241 64.4542 144.123C65.0697 143.035 65.7439 141.946 66.418 140.799C66.6818 142.241 66.9749 143.711 67.2973 145.152V145.123ZM66.0076 138.535C65.2163 139.682 64.5422 140.682 63.9267 141.682C63.487 139.505 63.106 137.446 62.7836 135.417C63.5456 134.299 64.2784 133.24 65.0111 132.211C65.2749 134.299 65.5973 136.417 65.9783 138.564L66.0076 138.535ZM61.6112 146.064C60.9664 147.417 60.3509 148.917 59.6475 150.712L58.3285 145.388C58.2113 144.711 58.0941 143.829 57.9475 142.799C58.4165 142.064 58.9147 141.358 59.413 140.623C59.7354 140.123 60.0285 139.652 60.3509 139.182C60.7612 141.417 61.1716 143.711 61.6405 146.064H61.6112ZM62.5784 133.828C62.1681 130.916 61.8457 128.093 61.6698 125.21C62.5198 124.122 63.3405 123.093 64.1318 122.092C64.2491 124.916 64.5129 127.799 64.8646 130.711C64.1025 131.711 63.3698 132.74 62.5784 133.828ZM59.9992 137.417C59.4423 138.182 58.8854 138.976 58.2992 139.799C58.0648 140.152 57.8596 140.476 57.6251 140.829C57.3027 138.329 56.951 135.211 56.6579 131.711C57.0096 131.211 57.3906 130.74 57.7717 130.24C58.1234 129.799 58.4458 129.358 58.7682 128.946C59.0906 131.769 59.5009 134.564 59.9992 137.417ZM57.5079 128.916C57.1855 129.358 56.8631 129.769 56.5406 130.181C56.3355 127.475 56.1596 124.563 56.0717 121.651C56.7165 120.769 57.3906 119.887 58.0061 119.063C58.0941 122.004 58.2992 124.857 58.6216 127.681C58.2699 128.093 57.8889 128.505 57.5079 128.946V128.916ZM53.1407 136.623C53.5511 139.74 54.0493 142.741 54.5769 145.623C53.9321 146.653 53.2873 147.653 52.6425 148.623C52.1442 145.535 51.7046 142.388 51.3235 139.27C51.9097 138.387 52.5252 137.505 53.1407 136.623ZM54.8993 147.3C55.6321 150.947 56.4234 154.388 57.2441 157.594L61.2009 171.948L60.1457 163.712C59.0027 157.683 59.9699 153.182 62.0802 148.564C62.4026 150.123 62.725 151.712 63.0474 153.359L63.8387 160.536C65.3921 156.153 66.7697 152.653 68.3524 149.359C68.6748 150.447 69.0265 151.476 69.3783 152.506C65.7439 156.771 63.3112 163.065 63.3112 169.065C64.3663 181.537 67.268 190.037 76.0022 200.391L78.3763 203.567L75.7384 200.655C66.4766 191.361 62.7836 184.449 58.5337 171.977C56.0717 165.595 54.2545 158.124 52.877 150.359C53.5218 149.359 54.1959 148.359 54.87 147.329L54.8993 147.3ZM73.3937 146.711L73.9799 148.623C73.4816 148.917 72.954 149.241 72.4851 149.594C71.8403 148.123 71.2541 146.564 70.7558 144.917C71.1954 144.152 71.6644 143.388 72.1334 142.594C72.4851 143.917 72.9247 145.27 73.423 146.741L73.3937 146.711ZM74.4488 150.153L73.3937 152.27L72.954 150.77C73.3937 150.447 73.8626 150.123 74.3609 149.888L74.4488 150.153ZM74.6833 169.124C74.0971 168.418 73.7454 167.595 73.6574 166.624C73.3937 165.565 73.9212 164.242 75.2402 164.242C75.9143 164.153 76.5884 164.418 77.2625 164.712C76.2367 166.095 75.3574 167.565 74.6833 169.124ZM78.0246 165.036C79.2556 165.565 80.6038 165.948 82.3624 164.771C83.7106 163.036 84.4727 161.036 84.121 159.771C85.5864 158.947 87.1692 158.359 88.8105 158.006C88.9277 158.741 88.9864 159.506 88.9864 160.271C88.9864 165.859 86.6123 171.683 81.3073 171.683C78.9039 171.683 76.7056 171.007 75.2695 169.742C75.9729 168.065 76.9108 166.477 78.0246 165.036ZM80.8676 162.065C81.3952 161.594 81.9521 161.153 82.5383 160.771C82.5089 160.947 82.4503 161.124 82.3917 161.33C82.1279 161.859 81.6003 162.124 81.3366 162.124C81.19 162.124 81.0435 162.124 80.8676 162.065ZM71.6351 140.741C71.1368 141.476 70.6386 142.211 70.1696 142.976C69.6713 141.035 69.2317 138.976 68.9093 136.799C69.4662 135.946 69.9938 135.152 70.5213 134.446C70.7558 136.534 71.1075 138.593 71.6351 140.741ZM68.6162 134.623C68.3524 132.564 68.1472 130.416 68.03 128.181C68.7334 127.269 69.4369 126.387 70.1403 125.534C70.1403 127.916 70.1696 130.122 70.3162 132.269C69.7593 133.005 69.1731 133.799 68.5869 134.623H68.6162ZM70.1989 121.475C70.1989 122.387 70.1696 123.24 70.1403 124.093C69.3783 124.975 68.6455 125.857 67.9421 126.74C67.8541 124.946 67.8248 123.122 67.8248 121.24C67.8248 120.004 67.8248 118.798 67.8248 117.651C68.6455 116.68 69.5248 115.71 70.4041 114.71C70.2868 116.886 70.2282 119.151 70.1989 121.504V121.475ZM64.1025 121.21C63.3112 122.181 62.4612 123.181 61.6112 124.21C61.5233 122.622 61.494 121.004 61.494 119.357V114.592C62.4026 113.445 63.3112 112.327 64.2491 111.18C64.0146 114.416 63.9853 117.769 64.1318 121.21H64.1025ZM57.9768 117.533C57.332 118.357 56.6872 119.181 56.0131 120.034C55.9545 117.033 56.0131 114.033 56.1596 111.121C56.1596 111.033 56.1596 110.945 56.1596 110.857C56.8044 110.033 57.4786 109.239 58.1234 108.415C57.9475 111.592 57.8889 114.592 57.9475 117.504L57.9768 117.533ZM79.8711 50.3536C79.9004 49.7359 79.959 49.1182 79.9883 48.4711L80.7504 44.1474C81.8055 45.0886 83.0072 45.8828 84.2968 46.5887C82.802 47.8535 81.3073 49.0888 79.8711 50.383V50.3536ZM108.477 33.588C107.891 33.8233 107.363 34.0587 106.865 34.3528C106.367 33.4998 105.81 32.7056 105.165 32.0586C105.488 31.8821 105.81 31.6762 106.191 31.4703L108.565 30.6761L108.301 31.9997C108.301 31.9997 108.243 32.6468 108.477 33.6175V33.588ZM102.029 32.2056C101.296 32.3527 100.564 32.4703 99.8309 32.5292C98.7758 32.5292 97.4568 30.9408 99.5671 30.6761C100.271 30.5879 101.15 31.1762 102.029 32.2056ZM105.4 39.4119V40.4707L103.817 41.5296L103.553 39.6766C103.495 39.2648 103.407 38.9118 103.289 38.5295C103.817 38.2059 104.345 37.853 104.901 37.5C105.107 38.1177 105.282 38.7648 105.4 39.3825V39.4119ZM100.212 38.9118C99.5378 39.2354 98.8051 39.4119 97.9844 39.4119C96.1379 39.6766 95.6103 38.8824 95.8741 37.2941C95.8741 36.5 96.4017 35.9705 97.7206 35.7058C99.3033 34.9999 99.9482 36.7941 100.212 38.9118ZM111.408 34.3528C112.2 34.1175 113.02 33.941 113.841 33.8528C113.606 34.941 113.343 35.9705 112.991 36.9412C112.375 36.1176 111.819 35.2058 111.408 34.3234V34.3528ZM115.043 33.7939C115.453 33.7939 115.863 33.7939 116.274 33.8528C124.656 34.7646 132.482 39.1766 139.018 44.1768C137.376 44.265 135.706 44.3827 134.006 44.4709C125.272 44.7357 119.175 42.3532 114.955 39.1471C114.574 38.7942 114.193 38.3824 113.812 37.9706C114.339 36.7058 114.749 35.294 115.043 33.7939ZM90.8622 1.9688C102.733 2.64531 111.672 11.2634 113.87 22.4992C99.274 23.1169 88.4002 27.8525 77.3798 37.0882C76.8522 35.7352 76.5591 34.294 76.5591 32.7939C76.5591 28.5584 79.4607 23.2346 83.4469 25.617C87.4036 27.4701 90.8622 25.8818 90.8622 23.764C90.8622 20.3227 84.502 20.8521 84.502 18.7049C84.502 15.793 90.3346 21.6168 91.6535 16.3225C92.4449 14.4694 89.807 12.3517 87.9605 13.1458L86.6416 13.94L88.4881 13.6753C89.807 13.6753 90.3346 14.4694 90.3346 15.793C90.3346 18.9697 83.7106 12.8811 83.7106 18.7049C83.7106 21.3521 89.5433 20.558 89.5433 23.2052C89.5433 25.5876 86.3778 22.9404 84.2382 22.6757C78.9332 22.411 76.0315 27.4701 75.7677 32.7645C75.6798 34.5881 75.9143 36.2646 76.4419 37.853C74.8005 39.2648 73.1885 40.7355 71.5179 42.3238C71.0489 42.765 70.5799 43.2356 70.111 43.6768C68.9386 42.6767 67.5904 41.8532 66.1249 41.2649C67.1507 38.4118 67.8248 35.4117 67.8248 31.9703C67.8248 27.2348 66.7111 23.3816 64.8353 20.3521C70.5213 9.91038 79.6366 1.46878 90.8622 1.9688ZM30.5137 20.8227C38.4566 10.6457 56.1303 10.0574 63.5163 19.4109C60.2923 25.6759 58.2699 32.9704 57.5079 40.4707C55.2217 40.9119 53.1407 41.8826 51.7339 43.4709C51.2649 42.765 50.7667 42.0885 50.2098 41.4708C50.7374 40.3237 51.0891 39.0001 51.1477 37.5294C51.4115 33.2939 50.3563 29.2937 46.1064 29.2937C44.2599 29.2937 43.9961 30.882 41.8859 30.0879C40.5669 29.2937 38.9842 27.9701 39.7756 26.6465L40.3031 25.0582H39.7756L38.9842 26.3818C36.8739 30.6173 38.9842 34.0881 42.941 34.3528C44.7875 34.3528 45.8427 32.7645 47.7185 33.0292C50.0925 33.0292 50.6201 35.6764 50.3563 37.5294C50.2684 38.7354 50.0046 39.8531 49.5943 40.8531C46.8392 38.1471 43.1755 36.647 38.9549 37C34.8516 37.1765 31.5103 38.7059 28.931 41.0296C25.3552 35.5587 26.7621 26.5583 30.4844 20.8227H30.5137ZM49.1839 41.8237C45.6375 48.6182 35.2033 49.2653 29.8103 42.1767C32.1844 39.9119 35.2619 38.3824 38.9842 38.0883C43.0289 37.9706 46.5461 39.3236 49.1839 41.8237ZM29.2241 42.7944C34.8809 49.5888 45.8427 49.0594 49.7408 42.412C50.2684 42.9709 50.7374 43.5591 51.177 44.2062C50.2977 45.5298 49.8581 47.2064 50.0925 49.2653C50.3563 52.7361 51.939 55.0303 54.0786 56.4715C54.0786 56.5598 54.0786 56.6186 54.0786 56.7068C52.7597 65.7367 50.3856 78.2079 47.1909 81.414L45.8427 83.2082C45.2565 80.8845 44.2306 78.7374 42.8824 76.9137C44.9634 76.2961 46.7512 75.0019 46.3995 71.0605C46.3995 67.678 45.1099 65.7955 42.9996 64.8837C44.4065 63.1778 45.3444 61.0894 45.3444 58.854C45.0806 55.6774 43.4979 51.9419 40.0393 51.9419C36.8739 51.9419 35.8188 54.5891 33.943 54.5891C30.7775 54.5891 32.0965 50.883 33.4154 49.53L34.4705 48.7359L32.624 49.7947C29.1948 51.9125 30.5137 57.501 34.7343 57.7657C37.8998 57.7657 38.1635 55.648 41.0945 55.648C43.2048 55.3833 44.2599 56.4421 44.2599 58.8246C44.1427 61.2659 43.3806 63.1778 42.2376 64.5896C41.2117 64.2661 40.01 64.119 38.7204 64.119C35.9946 64.119 33.8257 65.3249 32.3016 67.178C22.307 64.6484 22.0433 50.383 29.2241 42.7944ZM41.7979 65.0896C40.098 66.8838 37.7239 67.7368 35.5257 67.5898C34.705 67.5898 33.9723 67.5015 33.2395 67.3839C34.6171 65.8838 36.4929 64.9131 38.9549 64.9131C40.0394 64.8543 40.9773 64.9131 41.7686 65.0896H41.7979ZM32.3895 68.5016C33.2981 68.7075 34.2361 68.8545 35.2619 68.9134C37.6653 69.0604 40.5376 67.6192 42.6186 65.2955C44.9927 66.0897 45.872 68.031 45.3151 71.0311C44.9634 73.796 42.941 74.296 40.7428 74.5313C38.1049 72.1194 34.7343 70.7664 31.1879 71.1193C31.481 70.1781 31.862 69.2957 32.3895 68.5016ZM24.6811 74.7372C26.4104 73.6195 28.1397 72.943 29.8103 72.59C29.1655 75.8843 29.6344 79.5904 31.3344 82.4729C29.5758 83.6788 28.4621 86.0319 28.6379 88.2673C29.4293 93.5911 35.2619 91.1792 35.2619 94.6499C35.1446 96.2677 34.2654 97.5324 33.0344 98.3854C30.631 93.5911 26.0587 90.3262 19.3761 91.2086C18.1744 85.0906 20.4312 77.502 24.6811 74.7372ZM28.1397 99.709C23.4794 99.4149 20.8123 96.3853 19.6985 92.5028C25.7949 91.3557 29.6931 94.7088 31.8034 99.1208C30.6603 99.6208 29.3707 99.8267 28.1397 99.709ZM33.4154 99.1796C35.174 98.1207 36.3463 96.4442 36.3463 94.1499C36.3463 87.2378 31.0413 90.4438 31.0413 85.6495C31.0413 84.6788 31.3344 83.9141 31.8913 83.3847C32.8292 84.7083 34.0895 85.826 35.6136 86.6201C35.6136 86.6495 35.555 86.7084 35.5257 86.7378L34.4705 87.7967L36.1119 86.8554C37.4601 87.4437 39.0428 87.7967 40.8307 87.7967C42.6186 87.7967 44.0841 87.5319 45.4616 87.0319C45.4909 88.7379 45.2858 90.5027 44.7875 92.2969C42.4134 100.003 39.2187 103.974 34.7343 110.621L34.4705 111.004C34.7929 109.71 34.9981 108.445 34.9981 107.151C34.9981 104.356 34.4705 101.591 33.3861 99.1796H33.4154ZM16.5038 127.857C5.92299 127.857 9.35221 112.974 17.0313 112.974C21.4864 113.18 24.0656 118.151 24.9156 123.534C21.8967 126.152 18.7313 127.857 16.5038 127.857ZM28.6672 125.475V124.151C28.6672 123.357 28.6086 122.563 28.4914 121.798C29.3707 120.769 30.1913 119.681 30.9534 118.534L31.0413 119.357C31.1879 120.534 31.3344 121.622 31.481 122.651C30.631 123.534 29.7224 124.475 28.6672 125.475ZM35.0274 120.534C35.6136 119.769 36.2291 118.945 36.8446 118.122C37.1084 120.004 37.3722 121.769 37.6067 123.504C36.9325 124.298 36.2584 125.034 35.6136 125.769C35.4377 124.093 35.2326 122.357 35.0274 120.534ZM29.9275 146.035C30.0155 143.564 29.8396 141.035 29.4586 138.476L29.1948 136.358L32.5654 132.181C32.712 134.74 32.6826 137.387 32.3895 140.623C32.3895 141.064 32.3895 141.476 32.3895 141.917C31.5982 143.241 30.8068 144.594 29.9569 146.064L29.9275 146.035ZM34.9688 150.329C35.2912 147.476 35.4964 144.388 35.8188 140.858C35.9067 140.064 35.9653 139.329 36.0239 138.593C36.9325 137.152 37.8704 135.711 38.8377 134.27C39.0721 137.299 39.2187 140.388 39.2187 143.711C37.9291 145.741 36.5515 147.917 34.9981 150.329H34.9688ZM41.8272 152.094C42.1789 148.564 42.2962 144.888 42.179 141.182C42.8531 140.152 43.5272 139.123 44.2306 138.064C44.2306 138.211 44.2599 138.329 44.2892 138.476C44.4944 141.388 44.7289 144.123 44.9634 146.77C43.9668 148.417 42.9117 150.182 41.8272 152.094ZM47.2788 145.505C47.7771 144.711 48.2753 143.917 48.7736 143.123C49.1839 146.153 49.6529 149.27 50.2391 152.359C49.6236 153.359 49.0081 154.329 48.4219 155.3C48.0702 151.976 47.6892 148.741 47.2788 145.505ZM38.1928 187.331C38.6325 177.684 41.71 169.448 46.2823 161.153C46.9271 168.889 47.3374 176.272 46.9271 184.654C46.8685 185.919 46.6926 187.184 46.4288 188.419C43.5565 188.537 40.86 189.184 38.4566 190.272C38.2808 189.302 38.1928 188.302 38.1928 187.302V187.331ZM46.1651 189.566C45.2858 193.096 43.7617 196.508 41.7979 199.508C40.5376 196.92 39.3359 194.243 38.6911 191.449C40.9479 190.478 43.4686 189.861 46.1651 189.566ZM36.6981 192.478C37.2549 195.89 38.4566 199.273 39.7169 202.42C39.0135 203.302 38.2808 204.097 37.5187 204.891C35.936 201.655 34.1774 199.361 31.0706 197.655C32.5068 195.508 34.4119 193.773 36.6687 192.478H36.6981ZM36.0826 220.803C34.1774 220.803 35.174 217.274 37.548 213.332C38.398 217.009 38.6618 220.803 36.0826 220.803ZM39.4825 209.303C38.9842 208.097 38.5153 207.009 38.0756 206.009C38.8083 205.244 39.5411 204.42 40.2152 203.567C40.6549 204.626 41.0945 205.656 41.5048 206.656C40.8307 207.509 40.1566 208.391 39.4825 209.303ZM28.1397 208.862C28.081 205.538 28.6379 202.685 29.6638 200.273C31.7154 201.832 33.6206 204.038 35.2033 207.009C32.9464 208.862 30.543 210.215 28.2276 210.862C28.169 210.215 28.1103 209.568 28.1103 208.891L28.1397 208.862ZM24.4173 211.244C19.1123 210.45 11.9901 205.92 13.309 201.685C15.1555 196.361 20.1968 196.626 24.6811 197.714C26.1759 198.155 27.6707 198.861 29.1069 199.891C27.9638 202.508 27.319 205.538 27.319 208.891C27.319 209.626 27.3483 210.362 27.4069 211.068C26.3811 211.273 25.3846 211.362 24.4173 211.273V211.244ZM74.0092 228.039C74.9764 224.598 77.7022 222.686 81.3073 221.803C81.19 225.862 77.8194 227.686 74.0092 228.039ZM106.719 223.451C106.455 223.451 104.608 222.921 100.622 222.127C94.7897 220.627 87.6381 219.892 82.04 221.039C81.5417 217.333 78.1711 214.156 74.1557 214.156C73.3644 214.156 72.573 214.685 71.5179 214.685C70.1989 214.421 69.1438 213.627 68.3524 212.568C68.3524 211.773 68.3524 211.244 68.6162 210.979L69.1438 209.92L68.3524 210.715C66.5059 212.832 68.0886 217.627 72.573 217.891C74.4195 217.891 75.4746 216.833 77.3505 216.833C79.6073 216.833 81.1607 218.98 81.3073 221.245C77.1746 222.245 74.0092 224.392 73.1299 228.127C70.873 228.215 68.5283 227.804 66.6525 227.098C67.3852 226.157 67.8542 225.215 67.8542 224.274C67.8542 221.362 67.0628 218.156 64.6887 218.421C62.5784 218.686 62.0508 221.068 62.0508 223.215C62.0508 224.774 63.4284 226.186 65.4508 227.157C62.3733 230.333 55.72 233.039 52.5252 233.039C39.629 232.069 30.1034 223.921 28.4328 212.097C31.1879 211.273 33.6499 209.891 35.8188 208.126C36.1119 208.715 36.3757 209.303 36.6394 209.95C36.8739 210.715 37.1377 211.568 37.3429 212.45C33.8257 217.744 31.5982 222.715 35.0567 222.715C40.2445 222.715 40.8307 214.097 39.7756 210.185C40.4497 209.303 41.1824 208.45 41.9152 207.656C43.3806 211.126 44.553 214.185 44.553 216.597C44.553 218.45 44.553 219.244 44.2892 219.509L43.4979 222.156L45.0806 219.774C46.3995 217.656 45.872 215.803 46.1357 212.862C46.3995 210.45 45.6375 207.891 44.4944 205.244C44.7582 205.038 45.0513 204.832 45.3444 204.626L46.3702 203.42C47.0737 206.391 49.0374 209.185 50.796 211.803C49.2719 214.244 48.246 216.538 48.246 218.686C48.246 225.862 55.1338 224.804 55.9252 217.362C56.2182 214.715 54.9872 212.362 53.3752 210.126C53.8442 209.45 54.3717 208.744 54.87 208.038C56.3941 210.126 57.9182 212.274 57.5079 214.95L57.2441 217.597C58.0354 214.685 59.3544 212.274 61.4647 209.891C63.3112 207.773 63.8387 206.979 66.2421 205.097L65.9783 204.567L63.3405 205.891L62.0215 204.567C60.9664 203.244 60.7026 201.92 60.9664 200.332C61.2302 200.067 61.2302 199.538 61.2302 198.479C61.2302 199.273 61.494 198.479 61.7578 196.626L60.175 199.008C58.8561 200.92 57.4492 202.773 56.0717 204.538C55.251 203.655 54.6062 202.802 54.6062 201.126V199.008C54.6062 198.479 54.87 197.949 55.3976 197.42L57.2441 195.567L54.87 196.89C53.0235 197.949 52.2321 199.802 52.2321 202.479C52.2321 204.097 53.1114 205.567 54.1666 207.038C53.639 207.744 53.1114 208.42 52.6425 209.097C50.2391 205.891 47.5426 202.832 48.2753 199.302C49.0667 197.185 48.8029 195.861 50.1218 193.978L51.9684 190.802L49.5943 192.92C47.484 195.302 47.2202 196.626 46.4288 199.038C46.1944 199.92 46.1064 200.802 46.1357 201.655L44.2892 203.302C44.1427 203.45 43.9961 203.626 43.8496 203.803C43.3513 202.744 42.8238 201.685 42.2962 200.596C44.4944 197.096 46.1651 193.214 47.3374 189.508C56.0131 188.861 64.4249 198.861 73.6281 205.979C79.7245 211.303 85.264 215.009 90.5691 216.862L100.622 220.039L98.8344 219.333C104.55 221.215 109.679 222.009 115.218 222.568L113.606 222.686C110.969 223.215 108.565 223.48 106.719 223.48V223.451ZM65.8025 226.715C64.0146 225.892 62.8129 224.745 62.8129 223.451C62.8129 222.156 63.3405 220.539 64.6594 220.539C66.5059 220.274 67.0335 222.127 67.0335 223.98C67.0335 224.892 66.5645 225.804 65.8025 226.715ZM51.558 212.95C52.9356 215.068 54.0493 217.068 54.0493 218.95C53.7855 222.392 49.8288 221.862 50.0925 217.891C50.0925 216.185 50.6787 214.568 51.558 212.95ZM56.7751 205.332C56.9217 205.097 57.0975 204.861 57.2441 204.626L58.0354 203.567L60.9371 208.891L59.8819 210.479L58.2992 207.567C57.8596 206.597 57.332 205.95 56.7751 205.361V205.332ZM129.756 220.009C122.604 220.274 118.648 220.009 112.551 218.156C111.584 217.891 110.617 217.627 109.679 217.391L106.455 215.774C96.1379 210.185 89.2502 200.626 89.2502 191.331C89.2502 190.449 89.3381 189.596 89.4553 188.743C91.1553 189.537 93.2949 189.978 95.8448 189.978C103.348 190.214 110.06 185.125 112.287 177.831L113.841 178.301C113.577 180.154 113.05 180.948 112.258 182.007C113.313 182.007 114.105 182.272 114.368 182.537C115.16 182.801 115.687 183.331 116.215 184.39L117.798 179.595L116.479 178.537L115.16 177.742C115.16 177.36 115.16 177.036 115.189 176.742C116.684 177.448 118.032 178.389 119.117 179.625C120.582 181.36 121.579 183.301 122.165 185.302C117.827 186.949 114.544 190.772 114.339 195.832C114.134 197.89 114.544 199.714 115.365 201.332C113.343 202.273 110.91 202.479 108.624 202.097C107.979 201.626 107.1 201.332 106.924 200.096C106.66 198.773 106.924 197.979 108.243 197.979H109.034L108.243 197.714H106.924C105.488 197.92 104.374 199.067 104.315 200.567C102.176 199.302 100.798 197.449 101.091 195.302C101.091 193.449 101.883 192.39 103.729 191.596C107.158 190.802 108.507 193.979 111.672 192.655C114.046 191.861 116.156 189.743 115.101 187.596L114.046 185.743V187.066C114.046 192.39 108.477 188.39 106.631 188.39C102.674 188.919 100.534 191.037 100.271 195.037C99.9481 197.685 101.736 199.949 104.374 201.42C104.403 201.597 104.433 201.744 104.52 201.92C105.312 202.979 106.367 202.979 106.631 204.303C106.631 205.097 106.367 205.626 105.839 206.156L105.048 206.685L106.103 206.42C108.184 205.626 109.239 204.597 109.269 203.067C111.584 203.42 113.987 203.273 116.01 202.391C118.97 206.714 125.242 209.067 130.987 209.067C132.687 209.067 134.299 208.803 135.852 208.391C135.471 210.479 134.621 212.332 132.57 214.127L130.459 216.244C134.182 213.215 136.673 212.009 140.307 210.509C139.575 212.538 138.871 214.215 138.139 215.185C136.292 217.568 134.973 219.156 129.668 219.98L129.756 220.009ZM140.073 216.303L141.656 213.391C142.271 212.068 142.828 210.744 143.356 209.42L145.788 208.538C144.645 210.891 143.795 212.656 141.656 214.98L140.073 216.303ZM146.169 213.097L147.225 212.038C149.335 209.92 149.335 208.067 150.39 205.126C151.709 202.214 152.764 201.685 154.611 199.273L155.402 198.214L153.819 198.743C149.862 199.538 149.042 202.45 147.195 205.656C146.961 206.067 146.756 206.479 146.58 206.861C145.7 207.097 144.909 207.362 144 207.685C144.587 206.126 145.173 204.597 145.73 203.067C149.042 200.42 151.797 197.479 154.054 195.567C159.945 189.214 163.14 184.125 165.865 176.125C167.067 175.125 168.269 174.154 169.47 173.095C167.272 182.419 164.576 189.919 159.329 199.273C155.9 205.391 154.288 209.362 147.957 212.274L146.111 213.068L146.169 213.097ZM186.646 199.038C184.653 198.92 182.689 198.479 181.136 197.626C181.956 197.508 182.806 197.42 183.715 197.42C185.444 197.508 186.968 198.096 188.258 199.038C187.73 199.096 187.173 199.096 186.617 199.038H186.646ZM190.632 177.507C193.534 178.301 197.52 179.36 197.784 186.537C197.784 191.625 194.472 197.449 189.665 198.773C188.17 197.596 186.294 196.802 184.008 196.361C182.22 196.008 180.755 196.008 179.406 196.273C178.469 195.273 177.912 194.008 177.912 192.361C177.912 191.037 179.494 188.125 181.341 187.861C184.77 187.861 185.561 191.567 189.02 191.831C192.449 191.831 195.38 188.919 193.504 186.772L192.977 185.713L192.185 186.772L192.449 187.302C192.713 187.566 192.713 187.831 192.713 188.361C192.713 188.625 192.185 188.89 191.394 188.89C188.229 188.89 187.701 185.449 184.77 185.449C180.813 185.449 176.563 188.625 176.563 192.625C176.475 194.273 176.944 195.626 177.765 196.743C175.801 197.479 174.013 198.802 171.815 200.332L168.65 202.714L172.607 196.861C175.157 192.802 177.325 187.537 180.051 183.478C180.051 183.596 180.051 183.713 180.022 183.86V186.243L180.813 183.86C181.224 182.89 181.575 182.007 181.839 181.154C184.155 178.566 186.91 176.978 190.603 177.478L190.632 177.507ZM174.482 184.949C168.386 195.302 158.86 211.244 152.53 213.362L149.892 214.421L152.793 212.303C164.898 203.45 170.32 187.743 173.75 169.242C175.039 167.977 176.27 166.771 177.501 165.654C176.475 170.007 174.863 174.066 172.9 179.36L171.317 183.066L172.108 183.331L174.746 179.625C177.443 174.919 179.553 172.095 183.187 168.918L182.689 174.036C181.898 175.36 181.898 176.154 181.106 177.478C180.931 177.919 180.813 178.36 180.725 178.801C178.322 180.213 176.153 182.272 174.512 184.919L174.482 184.949ZM189.577 165.83L189.049 169.007L186.675 170.33L187.086 165.389C188.023 164.448 188.844 163.624 189.694 162.8C189.665 163.8 189.606 164.801 189.577 165.801V165.83ZM199.102 154.682V164.242C198.927 164.418 198.751 164.506 198.575 164.506L198.311 164.771L197.52 165.301C197.256 165.301 197.256 162.389 197.256 156.535L199.102 154.682ZM194.589 155.212V157.859C193.827 158.3 193.211 158.712 192.654 159.094L192.742 155.212C192.742 154.565 192.742 153.947 192.772 153.329C193.446 152.829 194.149 152.329 194.853 151.829C194.765 152.947 194.677 154.094 194.589 155.212ZM201.066 138.034C200.568 139.505 200.304 141.064 200.158 143.27L199.894 146.711C199.278 147.182 198.692 147.623 198.106 148.035C198.399 144.976 198.663 142.417 199.132 139.829C199.777 139.24 200.421 138.623 201.066 138.005V138.034ZM198.135 131.593C197.051 134.417 196.377 137.74 195.878 141.417C194.97 142.182 194.091 142.946 193.211 143.652C193.416 141.005 193.71 138.446 194.149 135.917C195.409 134.534 196.728 133.122 198.135 131.564V131.593ZM195.556 125.093C193.768 129.269 192.566 133.181 191.775 137.093C190.984 137.887 190.192 138.652 189.401 139.417C189.723 136.652 190.075 133.858 190.427 130.946C192.039 129.152 193.739 127.24 195.585 125.122L195.556 125.093ZM186.236 134.005C185.415 134.799 184.624 135.593 183.803 136.387C184.037 133.946 184.272 131.475 184.506 128.975C184.594 128.858 184.711 128.769 184.799 128.652C185.649 127.71 186.441 126.799 187.203 125.887C186.939 128.475 186.617 131.181 186.206 133.975L186.236 134.005ZM195.908 103.68C195.908 109.621 194.237 114.563 191.57 119.063C191.599 118.622 191.629 118.21 191.687 117.769C192.068 111.327 193.123 104.65 195.585 99.5325C195.82 100.797 195.937 102.18 195.937 103.709L195.908 103.68ZM192.215 89.3556C193.299 92.2086 194.237 94.4441 194.911 96.6795C192.977 99.5325 191.453 102.915 190.368 106.621C188.58 112.651 187.994 118.563 187.32 125.004C186.47 126.034 185.561 127.034 184.624 128.034C185.18 122.622 185.855 117.18 186.675 111.916C187.584 106.356 188.023 100.386 187.848 94.3558C190.222 92.7381 191.716 91.2674 192.244 89.3261L192.215 89.3556ZM176.857 66.2367C175.01 64.3837 175.274 63.3248 169.969 63.3248C165.748 63.0601 163.872 64.3837 160.707 66.7662L157.805 69.9428L160.707 67.8251C163.081 66.7662 164.4 66.7662 166.803 66.5015C180.667 65.9132 183.598 82.3552 183.656 96.15C183.539 96.2971 183.48 96.4147 183.48 96.503V97.0324C183.48 97.0324 183.598 96.9736 183.656 96.9148C183.656 101.797 183.275 106.268 182.953 109.504C181.898 116.18 180.931 123.71 180.139 132.505C179.377 133.24 178.615 133.975 177.853 134.711C177.882 133.564 177.912 132.417 177.912 131.269V120.651C177.912 116.68 177.648 113.21 177.384 109.768L176.593 110.033C176.329 115.092 176.329 120.387 175.01 125.446C174.101 128.71 172.841 131.211 171.2 133.446C171.083 131.564 170.936 129.622 170.789 127.593V121.475C169.734 124.651 168.679 125.975 166.569 128.916C164.722 130.769 163.931 131.828 161.791 133.152L162.055 134.475L162.847 133.681V136.329C162.847 138.446 162.964 140.093 162.993 141.799C162.847 141.917 162.7 142.064 162.583 142.182C161.997 142.77 161.498 143.27 161 143.741C161 143.564 161 143.417 161 143.241V136.858C161 135.27 161 134.475 161.264 134.211C162.055 121.74 153.057 113.239 142.213 113.504C136.292 113.504 131.485 117.504 129.346 122.504L128.701 122.24C128.965 121.563 129.228 120.916 129.522 120.416L130.049 119.357L127.939 118.828L126.092 117.239L124.51 121.21C125.36 121.887 126.327 122.475 127.47 123.063C127.089 124.298 126.678 125.446 125.829 126.769C125.829 126.769 125.829 126.769 125.829 126.799C124.949 126.71 123.982 126.769 122.663 126.769C119.761 126.769 116.303 127.828 116.039 130.74C116.039 130.799 116.039 130.858 116.039 130.946C114.046 130.622 111.994 130.564 110.031 130.799C109.65 130.534 109.21 130.24 108.888 129.681C108.624 128.622 109.151 127.828 109.943 127.563H110.734L110.207 127.034H109.151C106.777 128.358 105.722 129.946 106.513 131.534C101.824 133.093 98.2775 136.74 98.2775 142.917C98.2775 150.094 104.11 154.859 110.441 154.594C114.925 154.329 119.175 150.888 118.911 146.623C118.911 143.447 117.593 141.564 114.955 141.299C113.108 141.035 112.053 143.152 110.177 142.888C108.858 142.888 106.748 141.564 108.858 139.711L109.913 138.652L108.331 139.446C104.901 141.564 107.276 147.417 111.496 146.623C114.398 145.829 115.453 142.388 117.329 145.3C119.439 147.682 116.537 150.888 114.427 152.212C108.858 155.653 99.0689 150.359 99.0689 143.182C99.0689 137.064 102.645 133.475 107.305 132.064C107.95 132.417 108.594 132.711 108.594 133.622C108.858 134.681 108.594 135.476 108.067 135.74L107.012 136.27L108.331 136.005C110.441 135.211 111.232 134.152 110.969 132.564C110.969 132.064 110.851 131.711 110.705 131.446C112.522 131.299 114.398 131.446 116.215 131.858C116.801 133.358 118.56 134.27 120.494 133.622C120.611 133.593 120.699 133.534 120.787 133.505C121.608 133.917 122.399 134.417 123.132 134.976C126.063 137.005 127.235 140.476 127.001 144.27C122.077 146.623 120.494 151.712 121.667 156.271C118.56 159.683 114.222 162.065 109.093 162.065C108.77 162.065 108.477 162.065 108.155 162.065C104.784 158.947 100.036 156.918 95.0828 156.241C93.6173 156.065 92.1811 156.094 90.8036 156.3C90.276 155.888 89.7484 155.447 89.2208 155.006C88.0778 152.094 86.114 149.623 83.5641 148.27C83.3589 147.917 83.1245 147.594 82.9193 147.241L81.6003 144.858C82.3917 142.741 83.1831 140.623 84.502 138.74L88.7226 134.24L88.195 132.917L86.0847 135.299C85.0296 132.917 83.9744 129.975 84.7658 126.799C85.5571 123.357 87.4036 120.416 90.0708 118.298L93.2363 116.18L89.807 117.769C85.8502 119.975 83.3882 123.093 82.3624 127.122C81.3073 128.181 80.4573 129.063 79.6659 129.946C79.6366 128.622 79.7538 127.21 80.0176 125.475C81.0728 118.828 82.6555 115.651 87.1692 110.592L90.3346 107.945L87.433 110.062C82.5089 113.974 79.3435 118.563 77.9366 123.828C76.4419 125.357 75.1229 126.681 73.8919 128.005C73.7454 125.887 73.6574 123.71 73.6281 121.504C76.1781 118.681 79.0211 115.857 82.3917 112.71L82.1279 111.651L79.7538 113.504L79.4901 111.651C79.2263 111.386 79.4901 108.474 80.0176 102.621C82.3917 96.2383 85.3227 93.0616 90.5984 88.7967L94.2914 85.8848L90.3346 88.2673C83.1831 92.7675 79.4901 96.7677 77.116 104.474C76.8229 105.386 76.6177 106.209 76.5005 106.974C75.5919 107.915 74.7126 108.827 73.8919 109.71C74.3902 100.121 76.0315 92.8263 83.4469 85.3848L87.9312 80.5904L82.89 84.8259C77.6142 89.385 74.566 94.3558 72.7782 99.8855C71.2834 101.591 69.8472 103.18 68.5283 104.739C68.8507 102.121 69.2903 99.6502 69.9351 97.3265C70.7265 92.8263 73.1006 87.7672 76.8229 82.1787L80.7797 77.3844L76.5591 81.6199C72.6023 85.5907 70.1989 88.7967 68.88 91.1792C68.03 92.9734 67.3266 94.9147 66.7111 96.9148C65.0404 98.709 63.5456 100.386 62.1681 102.003C62.3439 99.4737 62.5491 97.0912 62.7836 94.797C64.806 92.1204 66.7404 89.4438 68.6162 86.6789C71.5179 82.7082 73.6574 78.4432 76.0315 74.2077C78.9918 67.7074 79.3728 62.766 79.578 56.8539C80.1642 56.501 80.7504 56.148 81.3952 55.795C81.8348 62.3542 86.2606 68.9428 92.9432 67.8251C98.2482 67.0309 102.996 65.1779 103.26 59.0599C103.26 52.4125 95.3172 48.9712 89.2208 50.8242C87.1399 51.4419 85.1761 52.2655 83.3296 53.2067C83.1244 50.9713 83.6227 48.7653 85.0296 46.9417C93.7931 51.236 106.396 50.1183 112.258 40.7943C116.508 44.5004 122.546 45.5004 127.558 45.5004H133.918C136.087 45.4416 138.226 45.3828 140.395 45.2945C142.066 46.6181 143.619 47.9711 145.085 49.2947C143.707 49.2947 142.213 49.2947 140.601 49.2947C140.601 49.2947 140.542 49.2947 140.513 49.2653C133.361 46.0887 127.558 45.5592 122.253 45.5592H120.67V46.0887H122.253C125.418 46.0887 135.208 49.2653 136.028 50.0595C138.666 51.9419 141.216 53.5302 143.561 55.148C142.564 55.4715 141.568 55.795 140.513 56.1774L140.835 56.501C138.725 55.4421 136.585 54.8538 133.654 54.8538C112.756 54.0597 110.089 88.3261 134.709 89.1202C154.288 89.9144 158.538 67.8839 141.861 67.0897C131.808 66.2956 134.182 75.0607 132.071 75.0607C131.28 75.0607 130.489 74.5313 130.225 73.7371L129.697 72.4135L129.434 74.2666C129.434 76.1196 130.489 76.9137 132.863 76.9137C139.487 76.9137 134.973 67.3544 141.861 68.1486C157.483 69.4722 151.65 89.1202 134.709 88.3261C114.075 87.5319 111.965 58.0599 132.335 56.7363C135.764 56.7363 138.432 57.7951 140.542 59.9129L141.861 61.7659L140.542 62.8248L141.07 63.3542C144.528 61.9718 147.078 61.1483 150.214 60.5306C150.918 61.2659 151.562 62.0012 152.178 62.8248L152.969 64.1484L149.804 65.7367L150.331 66.5309C153.497 65.472 155.109 65.2073 158.274 64.4131C160.648 64.1484 162.759 63.619 164.107 63.3542L161.733 60.4423C161.44 60.1188 161.088 59.707 160.678 59.2364C165.015 58.9128 166.071 59.2364 172.841 61.5306C168.855 58.6481 165.572 55.7362 162.348 52.7361C163.491 52.6772 164.634 52.6184 165.836 52.589C170.379 57.2657 174.307 62.0012 176.798 66.325L176.857 66.2367ZM127.792 121.887L125.535 120.945L126.327 118.828L127.382 119.622C127.646 119.622 127.909 120.151 128.173 120.151V120.681C128.027 121.092 127.909 121.504 127.792 121.887ZM83.6227 54.7362C83.6227 54.7362 83.8572 54.6185 83.9744 54.5597C86.0847 53.5008 88.7519 52.9714 91.9173 52.9714C95.3465 52.9714 98.0137 54.8244 100.124 58.8246C103.553 66.5309 93.7638 66.2662 88.7519 62.7954C86.2313 60.8541 84.3261 57.854 83.6227 54.7362ZM172.108 51.6478C171.61 51.6478 171.141 51.6478 170.672 51.6478C169.441 50.383 168.122 49.1182 166.745 47.9123C167.272 47.8241 167.771 47.7064 168.298 47.6182C169.91 49.03 171.522 50.383 173.163 51.6478C172.812 51.6478 172.46 51.6478 172.108 51.6478ZM186.91 57.2069C184.653 55.8245 182.425 54.2361 180.168 52.5302C184.946 52.7655 189.518 53.5302 193.534 56.148C195.585 57.3539 199.249 58.6481 201.623 61.06C196.406 60.4717 190.544 59.0305 186.91 57.2069Z" fill="#1A1715"/>
</svg>
